<svg xmlns="http://www.w3.org/2000/svg" xmlns:xlink="http://www.w3.org/1999/xlink" width="184" height="107" viewBox="0 0 184 107">
  <defs>
    <clipPath id="clip-path">
      <rect id="Rectangle_204" data-name="Rectangle 204" width="184" height="107" rx="10" transform="translate(176 961)" fill="#0244e7"/>
    </clipPath>
    <clipPath id="clip-path-2">
      <path id="Path_1045" data-name="Path 1045" d="M1269.223,624.882s-7.727,1.776-11.712-.639c-2.613-1.812-2.707-5.911,1.123-8.617,4.934-3.487,14.8-2.661,18.433,2.9,1.267,1.939,2.584,6.015,4.089,9.45,3.5,7.988,13.556,8.612,14.163,19,.037.631-1.2-.376-3.167-.881,2.292,2.938-1.562,5.6-2.051,6.212-4.594-11.42-7.214-9.845-15.924-11.247a5.643,5.643,0,0,0-1.231-.981c-.132-1.631-.353-3.416-.359-4.434,0,0,2.045-1.439,1.945-3.11s-.572-1.627-.763-1.587a12.984,12.984,0,0,0-1.284.677c-.388-2.17-.3-6.494-3.26-6.734" transform="translate(-1255.641 -613.539)" fill="none" clip-rule="evenodd"/>
    </clipPath>
    <linearGradient id="linear-gradient" x1="0.5" y1="0.985" x2="0.5" y2="0.136" gradientUnits="objectBoundingBox">
      <stop offset="0" stop-color="#3b1212"/>
      <stop offset="1" stop-color="#905151"/>
    </linearGradient>
    <clipPath id="clip-path-3">
      <path id="Path_1056" data-name="Path 1056" d="M1850.4,802.29h16.886a15.149,15.149,0,0,1,14.84,12.587c.128,0,.686,4.7.725,5.111.833,8.793.9,21.638-1.577,30.89h-39.7l-.171-21.818v-23.2a13.2,13.2,0,0,1,9-3.565" transform="translate(-1841.401 -802.29)" fill="none"/>
    </clipPath>
    <linearGradient id="linear-gradient-2" x1="0.506" y1="1.032" x2="0.497" y2="0.203" gradientUnits="objectBoundingBox">
      <stop offset="0" stop-color="#ea6200"/>
      <stop offset="1" stop-color="#ffc045"/>
    </linearGradient>
    <clipPath id="clip-path-4">
      <path id="Path_1060" data-name="Path 1060" d="M1882.672,598.487c.96,1.808.543,5.021.086,5.975-.654,1.366-.172,1.913.4,1.718a17.07,17.07,0,0,0,2.593-1.439c.223-.106.678-.189.832-.02.63.7-.753,2.653-1.6,3.177,4.134.488,8.7-6.273,6.15-10.854,1.511-4.773-2.046-9.421-6.366-10.315a20.85,20.85,0,0,0-9.481.541c-2.644.724-3.04-1.951-5.506-.721-2.923,1.457-3.454,4.7-3.322,6.657a6.276,6.276,0,0,0,2.828,4.484c3.492,2.475,10.12-1.167,12.614.053a1.692,1.692,0,0,1,.772.745" transform="translate(-1866.44 -586.22)" fill="none" clip-rule="evenodd"/>
    </clipPath>
    <linearGradient id="linear-gradient-3" x1="0.5" y1="0.965" x2="0.5" y2="0.138" xlink:href="#linear-gradient"/>
    <clipPath id="clip-path-5">
      <path id="Path_1065" data-name="Path 1065" d="M1539.455,858.182h-43.127a2.67,2.67,0,0,0-2.778,2.777l3.517,25.9a2.939,2.939,0,0,0,2.777,2.778h43.127a2.669,2.669,0,0,0,2.778-2.778l-3.518-25.9a2.939,2.939,0,0,0-2.777-2.777" transform="translate(-1493.531 -858.182)" fill="none" clip-rule="evenodd"/>
    </clipPath>
    <linearGradient id="linear-gradient-4" x1="0.5" y1="0.981" x2="0.5" y2="-0.335" gradientUnits="objectBoundingBox">
      <stop offset="0" stop-color="#0042e7"/>
      <stop offset="0.251" stop-color="#0244e7"/>
      <stop offset="0.426" stop-color="#094de9"/>
      <stop offset="0.578" stop-color="#155dec"/>
      <stop offset="0.717" stop-color="#2773f0"/>
      <stop offset="0.847" stop-color="#3d8ff6"/>
      <stop offset="0.968" stop-color="#58b1fc"/>
      <stop offset="1" stop-color="#61bcff"/>
    </linearGradient>
    <clipPath id="clip-path-6">
      <path id="Path_1066" data-name="Path 1066" d="M1527.923,1072.186a2.541,2.541,0,0,0,1.843.778h43.127a2.955,2.955,0,0,0,2.433-1.3l-15.482-2.556-18.129-.2Z" transform="translate(-1527.923 -1068.912)" fill="none" clip-rule="evenodd"/>
    </clipPath>
    <linearGradient id="linear-gradient-5" x1="0.5" y1="0.855" x2="0.5" y2="-9.364" gradientUnits="objectBoundingBox">
      <stop offset="0" stop-color="#003cd3"/>
      <stop offset="0.044" stop-color="#003cd5"/>
      <stop offset="0.066" stop-color="#003edc"/>
      <stop offset="0.08" stop-color="#0042e7"/>
      <stop offset="1" stop-color="#61bcff"/>
    </linearGradient>
    <clipPath id="clip-path-7">
      <path id="Path_1073" data-name="Path 1073" d="M1871.176,1135c-3.845,0-6.961,2.294-6.961,5.124,0,.068,0,.135.006.2h13.91c0-.068.006-.135.006-.2,0-2.829-3.117-5.124-6.961-5.124" transform="translate(-1864.215 -1134.997)" fill="none" clip-rule="evenodd"/>
    </clipPath>
    <linearGradient id="linear-gradient-6" x1="0.5" y1="0.981" x2="0.5" y2="-0.059" gradientUnits="objectBoundingBox">
      <stop offset="0" stop-color="#0048ff"/>
      <stop offset="0.238" stop-color="#135fff"/>
      <stop offset="0.733" stop-color="#49f"/>
      <stop offset="1" stop-color="#61bcff"/>
    </linearGradient>
    <clipPath id="clip-path-8">
      <path id="Path_1082" data-name="Path 1082" d="M853.992,858.182H810.866a2.669,2.669,0,0,0-2.778,2.777l3.517,25.9a2.94,2.94,0,0,0,2.778,2.778H857.51a2.669,2.669,0,0,0,2.777-2.778l-3.517-25.9a2.94,2.94,0,0,0-2.777-2.777" transform="translate(-808.068 -858.182)" fill="none" clip-rule="evenodd"/>
    </clipPath>
    <clipPath id="clip-path-9">
      <path id="Path_1083" data-name="Path 1083" d="M842.459,1072.186a2.541,2.541,0,0,0,1.843.778h43.127a2.955,2.955,0,0,0,2.433-1.3l-15.482-2.556-18.128-.2Z" transform="translate(-842.459 -1068.912)" fill="none" clip-rule="evenodd"/>
    </clipPath>
    <clipPath id="clip-path-10">
      <path id="Path_1094" data-name="Path 1094" d="M1452.446,414.5a15.236,15.236,0,1,0,15.236,15.236,15.236,15.236,0,0,0-15.236-15.236" transform="translate(-1437.209 -414.503)" fill="none" clip-rule="evenodd"/>
    </clipPath>
    <linearGradient id="linear-gradient-9" x1="0.599" y1="0.989" x2="0.391" y2="-0.037" gradientUnits="objectBoundingBox">
      <stop offset="0" stop-color="#003cd3"/>
      <stop offset="0.218" stop-color="#1153da"/>
      <stop offset="0.673" stop-color="#3e8def"/>
      <stop offset="1" stop-color="#61bcff"/>
    </linearGradient>
    <clipPath id="clip-path-11">
      <path id="Path_1097" data-name="Path 1097" d="M1612.01,569.7h-7.274a10.838,10.838,0,0,0-10.839,10.838v4.9a10.837,10.837,0,0,0,10.839,10.837h1.5l5.778,3.883v-3.883a10.837,10.837,0,0,0,10.838-10.837v-4.9A10.838,10.838,0,0,0,1612.01,569.7" transform="translate(-1593.897 -569.699)" fill="none" clip-rule="evenodd"/>
    </clipPath>
    <linearGradient id="linear-gradient-10" x1="0.459" y1="0.718" x2="0.671" y2="-0.417" gradientUnits="objectBoundingBox">
      <stop offset="0" stop-color="#2491ff"/>
      <stop offset="1" stop-color="#fdfdfd"/>
    </linearGradient>
    <clipPath id="clip-path-12">
      <path id="Path_1104" data-name="Path 1104" d="M1183.628,361.915H1195.2a8.861,8.861,0,0,1,8.861,8.861v2a8.86,8.86,0,0,1-8.861,8.86h-6.844l-.08,3.207-4.644-3.207a8.86,8.86,0,0,1-8.861-8.86v-2a8.861,8.861,0,0,1,8.861-8.861" transform="translate(-1174.767 -361.915)" fill="none"/>
    </clipPath>
    <linearGradient id="linear-gradient-11" x1="0.503" y1="1.032" x2="0.498" y2="0.203" xlink:href="#linear-gradient-2"/>
    <clipPath id="clip-path-13">
      <path id="Path_1105" data-name="Path 1105" d="M1029.8,451.352H1018.23a8.861,8.861,0,0,0-8.861,8.861v2a8.861,8.861,0,0,0,8.861,8.86h6.844l4.724,3.174v-3.174a8.86,8.86,0,0,0,8.861-8.86v-2a8.861,8.861,0,0,0-8.861-8.861" transform="translate(-1009.369 -451.352)" fill="none" clip-rule="evenodd"/>
    </clipPath>
    <linearGradient id="linear-gradient-12" x1="0.5" y1="0.861" x2="0.5" y2="-0.429" xlink:href="#linear-gradient-10"/>
    <clipPath id="clip-path-14">
      <path id="Path_1112" data-name="Path 1112" d="M1758.589,373.056l.535-.879a.958.958,0,0,0-.116-1.154,9.923,9.923,0,0,1-1.448-1.984.959.959,0,0,0-1.065-.462l-1,.241a.967.967,0,0,1-1.168-.709l-.464-1.916a.967.967,0,0,1,.712-1.168l1-.243a.959.959,0,0,0,.735-.9,9.9,9.9,0,0,1,.378-2.427.956.956,0,0,0-.428-1.079l-.878-.536a.966.966,0,0,1-.323-1.328l1.026-1.684a.966.966,0,0,1,1.328-.323l.879.535a.96.96,0,0,0,1.155-.115,9.91,9.91,0,0,1,1.982-1.449.958.958,0,0,0,.463-1.066l-.243-1a.965.965,0,0,1,.712-1.166l1.916-.466a.967.967,0,0,1,1.167.712l.243,1a.957.957,0,0,0,.9.734,10.034,10.034,0,0,1,2.427.378.956.956,0,0,0,1.079-.426l.535-.879a.967.967,0,0,1,1.329-.323l1.683,1.026a.967.967,0,0,1,.323,1.329l-.535.878a.96.96,0,0,0,.116,1.156,9.871,9.871,0,0,1,1.448,1.982.959.959,0,0,0,1.066.464l1-.244a.967.967,0,0,1,1.167.712l.465,1.915a.969.969,0,0,1-.712,1.169l-1,.241a.959.959,0,0,0-.734.9,9.907,9.907,0,0,1-.378,2.426.958.958,0,0,0,.426,1.08l.879.535a.966.966,0,0,1,.323,1.329l-1.025,1.684a.97.97,0,0,1-1.33.322l-.878-.536a.96.96,0,0,0-1.156.116,9.912,9.912,0,0,1-1.981,1.447.959.959,0,0,0-.463,1.066l.243,1a.968.968,0,0,1-.712,1.169l-1.916.464a.966.966,0,0,1-1.167-.712l-.243-1a.96.96,0,0,0-.9-.735,9.775,9.775,0,0,1-2.426-.377.956.956,0,0,0-1.078.426l-.537.879a.966.966,0,0,1-1.328.323l-1.683-1.026a.964.964,0,0,1-.322-1.328m7.686-11.739a2.875,2.875,0,1,0,2.875,2.875A2.875,2.875,0,0,0,1766.275,361.318Zm-1.972,7.852a5.353,5.353,0,1,0-2.062-8.5A5.346,5.346,0,0,0,1764.3,369.17Z" transform="translate(-1753.834 -351.752)" fill="none" clip-rule="evenodd"/>
    </clipPath>
    <linearGradient id="linear-gradient-13" x1="0.637" y1="1.017" x2="0.266" y2="-0.385" xlink:href="#linear-gradient-10"/>
    <clipPath id="clip-path-15">
      <path id="Path_1113" data-name="Path 1113" d="M1942,426.073l.121-.652a.618.618,0,0,0-.334-.669,6.383,6.383,0,0,1-1.327-.863.618.618,0,0,0-.748-.034l-.548.374a.623.623,0,0,1-.866-.16l-.719-1.048a.623.623,0,0,1,.162-.866l.547-.376a.618.618,0,0,0,.237-.71,6.394,6.394,0,0,1-.328-1.549.617.617,0,0,0-.5-.552l-.652-.122a.623.623,0,0,1-.5-.726l.233-1.25a.623.623,0,0,1,.726-.5l.652.121a.618.618,0,0,0,.669-.334,6.415,6.415,0,0,1,.863-1.327.617.617,0,0,0,.035-.748l-.376-.547a.622.622,0,0,1,.162-.866l1.048-.72a.624.624,0,0,1,.867.161l.375.547a.617.617,0,0,0,.71.236,6.474,6.474,0,0,1,1.549-.328.616.616,0,0,0,.553-.5l.121-.652a.624.624,0,0,1,.727-.5l1.249.233a.623.623,0,0,1,.5.727l-.121.652a.618.618,0,0,0,.335.67,6.366,6.366,0,0,1,1.326.862.62.62,0,0,0,.749.036l.547-.376a.624.624,0,0,1,.867.161l.719,1.047a.624.624,0,0,1-.162.867l-.547.375a.618.618,0,0,0-.236.711,6.371,6.371,0,0,1,.328,1.548.618.618,0,0,0,.5.553l.652.121a.622.622,0,0,1,.5.726l-.232,1.25a.625.625,0,0,1-.727.5l-.652-.122a.619.619,0,0,0-.67.335,6.388,6.388,0,0,1-.863,1.326.618.618,0,0,0-.035.748l.375.547a.624.624,0,0,1-.161.868l-1.049.719a.622.622,0,0,1-.866-.161l-.376-.547a.618.618,0,0,0-.71-.237,6.288,6.288,0,0,1-1.549.329.616.616,0,0,0-.552.5l-.122.653a.623.623,0,0,1-.726.5l-1.25-.233a.622.622,0,0,1-.5-.726m1.942-8.834a1.853,1.853,0,1,0,2.391,1.074A1.854,1.854,0,0,0,1943.94,417.24Zm.611,5.183a3.451,3.451,0,1,0-3.188-4.647A3.446,3.446,0,0,0,1944.551,422.423Z" transform="translate(-1936.528 -410.902)" fill="none" clip-rule="evenodd"/>
    </clipPath>
    <linearGradient id="linear-gradient-14" x1="0.81" y1="0.932" x2="-0.031" y2="-0.24" xlink:href="#linear-gradient-10"/>
  </defs>
  <g id="call" transform="translate(-176 -961)" clip-path="url(#clip-path)">
    <g id="Group_12888" data-name="Group 12888" transform="translate(-624.454 609.249)">
      <path id="Path_1029" data-name="Path 1029" d="M997.212,520.186h-2.618c-7.765,0-14.117,6.069-14.117,13.487s6.353,13.487,14.117,13.487h117.863c12.573,0,20.955-9.827,20.955-21.839s-9.327-20.718-20.955-21.838c-5.316,0-10.124-4.156-10.124-9.234a9.485,9.485,0,0,1,9.665-9.234h5.467a9.61,9.61,0,1,0,0-19.2h-13.98a3.742,3.742,0,1,1,0-7.475h1a2.65,2.65,0,0,0,2.7-2.579h0a2.65,2.65,0,0,0-2.7-2.58h-16.148c-3.584,0-3.983,4.044-13.035,4.044h-29.559a3.369,3.369,0,1,0,0,6.732h-.79a4.882,4.882,0,1,1,0,9.754h-1.961c-13.75,0-15.693,3.433-18.1,10.261s-6.937,7.378-6.937,7.378H998.416a7.55,7.55,0,0,0-7.693,7.35c.017,2.627.882,5.687,6.559,7.986,2.58,1.044,10.863,4.17,10.863,7.018C1008.144,517.59,1001.282,520.186,997.212,520.186Zm114.845-61.848a2.582,2.582,0,1,1,2.7-2.579A2.641,2.641,0,0,1,1112.057,458.339Z" transform="translate(-149.991 -88.24)" fill="#d8e7ff" fill-rule="evenodd"/>
      <path id="Path_1030" data-name="Path 1030" d="M1037.375,1027.136c-1.663,5.009-5.526,10.821-7.02,13.946-.979-.152-4.891-.264-5.944.309-.661.359-5.088,3.714-4.115,4.523,1.125.934,1.275-1.128,3.173-1.215.338-.015,1.318-.176,1.663.089a.208.208,0,0,1,.072.121c-.037.021-.073.041-.109.058,0,0,.041.008.12.021.041.682.788-.191,1.073.12a4.419,4.419,0,0,0,3.038.746c1.883-.715,4.678.887,4.678.887l-.72-2.131c1.761.24,8.692-8.888,8.737-8.905a5.338,5.338,0,0,0,2.291-2.672v-4.762Z" transform="translate(-184.512 -587.568)" fill="#f7cccf" fill-rule="evenodd"/>
      <path id="Path_1031" data-name="Path 1031" d="M1128,858.1c-3.567,7.83-18.879,29.034-20,26.638-1-2.128-4.757-2.827-4.571-4.122s6.555-19.969,7.472-20.028c1.072-.069,4.729-11.7,11.364-15.529,1.035-.6,7.02,10.222,5.736,13.04" transform="translate(-256.948 -429.142)" fill="#1943aa" fill-rule="evenodd"/>
      <path id="Path_1032" data-name="Path 1032" d="M1265.222,662.69c1.776,12.958-6.931,16.956,1.594,28.939,0,0,5.222-5.748,7.458-6.154s2.534-7.437,2.534-7.8-1.99-14.379-1.99-14.379Z" transform="translate(-395.785 -270.509)" fill="#602c2c" fill-rule="evenodd"/>
      <path id="Path_1033" data-name="Path 1033" d="M1231.723,820.884c4.214,0,8.45,2.138,10.294,4.889,2.711,4.042-4.186,21-2.787,41.232h-34.637c-1.457-12.239-1.519-23.3,1.672-40.213,4.415-6.949,18.669-5.908,25.457-5.908" transform="translate(-344.132 -408.086)" fill="#1943aa" fill-rule="evenodd"/>
      <path id="Path_1034" data-name="Path 1034" d="M1415.324,923.985c-.256,1.57-.514,3.227-.754,4.959a13.278,13.278,0,0,1-3.215,2.3c-.307-.034-7.253-.291-7.253-.291s5.878-3.314,5.752-6.524-.586-8.78-.586-8.78,5.13,4.924,5.3,5.55c.078.292.428,1.5.759,2.79" transform="translate(-518.535 -490.573)" fill="#0e338e" fill-rule="evenodd"/>
      <path id="Path_1035" data-name="Path 1035" d="M1377.246,1059.1q-.192,1.977-.317,4.045a26.29,26.29,0,0,1-6.192,1.313c-4.794.375-8.806-.87-8.8-1.084l12.173-4.377Z" transform="translate(-481.855 -615.287)" fill="#0e338e" fill-rule="evenodd"/>
      <path id="Path_1036" data-name="Path 1036" d="M1274.123,819.875c-4.069,2.35-8.347,25.321-5.47,45.805h14.39a82.762,82.762,0,0,1,4.146-46.122,53.284,53.284,0,0,0-13.066.316" transform="translate(-399.88 -406.761)" fill="#fff" fill-rule="evenodd"/>
      <path id="Path_1037" data-name="Path 1037" d="M1363.714,1087.073c-.028-.61-.074-.919-.091-1.521l-1.684.924c-.005.113.017.3,1.776.6" transform="translate(-481.853 -638.388)" fill="#c8c8c9" fill-rule="evenodd"/>
      <path id="Path_1038" data-name="Path 1038" d="M1287.785,693.657a8.922,8.922,0,0,0,4.456,3.246v1.725l-.308.416c-1.127,1.96-.514,5.9,1.352,6.857,2.92-1.047,6.87-3.63,7.662-7.259l-.521-.483-.711-.5-.348-4.3c.22-.065,1.63-1.366,2.078-1.627a2.573,2.573,0,0,0,.76-2.353c-.182-.994-1.627-.322-1.627-.322h0c1.254-2.949,2.86-5.492-.372-7.131s-9.75-1.516-9.75-1.516l-4.039-.425c.776,1.179.643,5.1.31,8.012-.3,2.61-.734,3.507,1.057,5.658" transform="translate(-416.152 -285.557)" fill="#f7cccf" fill-rule="evenodd"/>
      <path id="Path_1039" data-name="Path 1039" d="M1336.692,789.988c-.959,3.111-1.934,5.17-5.486,5.564V792.6c1.241-.087,2.887-.506,5.486-2.613" transform="translate(-455.117 -381.255)" fill="#e98385" fill-rule="evenodd"/>
      <path id="Path_1040" data-name="Path 1040" d="M1351.028,848.313c-1.539-3.167-1.245-6,1.707-7.972h0c2.952-1.968,5.469.432,7.008,3.6,3.021,6.216,5.234,20.074,2.036,24.019-1.946,2.4-11.376,4.114-16.92,4.638a22.685,22.685,0,0,1-4.653.071c-1.931-.532-3.06-4.641-2.152-6.326.353-.656,2.445-.883,3.255-1.043a70.19,70.19,0,0,0,11.838-3.864c2.089-1.126-1.04-10.9-2.119-13.122" transform="translate(-460.797 -424.44)" fill="#1943aa" fill-rule="evenodd"/>
      <path id="Path_1041" data-name="Path 1041" d="M1329.049,1047.946c1.591.512,3.919,5.638.285,5.344a9.912,9.912,0,0,0-1.925-.047,5.427,5.427,0,0,1-2.152-4.8Z" transform="translate(-449.936 -605.672)" fill="#fff" fill-rule="evenodd"/>
      <path id="Path_1042" data-name="Path 1042" d="M1255.045,1043.282l-1.643.213-3.35-1.255c-.354-.246-2.763-1.307-2.25-.35.361.672,1.63,1.9,1.583,1.962-.622.758-5.551,1.145-5.612,1.213-.852.946,2.292.883,2.825.9a19.417,19.417,0,0,0-2.074.632,1.068,1.068,0,0,0,.93.481,13.122,13.122,0,0,1,2.078-.072c.125.132-2.1.62-1.978.734a.936.936,0,0,0,.742.262,18.029,18.029,0,0,1,2.043-.173c.168.107-1.449.362-1.287.447.126.066.116.314.255.321,3.713.2,4-1.67,8.249-1.327,2.362.191.218-3.476-.511-3.984" transform="translate(-378.927 -600.061)" fill="#f7cccf" fill-rule="evenodd"/>
      <path id="Path_1043" data-name="Path 1043" d="M1307.256,764.612c-.437.7.722,1.732,1.36,1.9,1.486.382,3.136-.149,3.314-1.731-.751-.2-1.963.265-3.216.078-.961-.142-1.458-.243-1.458-.243" transform="translate(-434.198 -359.178)" fill="#fff" fill-rule="evenodd"/>
      <path id="Path_1044" data-name="Path 1044" d="M1409.72,708.093a2.146,2.146,0,1,1-1.679,2.094,1.921,1.921,0,0,1,1.679-2.094" transform="translate(-521.961 -310.008)" fill="#ff89a2" fill-rule="evenodd"/>
      <g id="Group_12859" data-name="Group 12859" transform="translate(866.264 385.79)">
        <g id="Group_12858" data-name="Group 12858" transform="translate(0 0)" clip-path="url(#clip-path-2)">
          <rect id="Rectangle_187" data-name="Rectangle 187" width="40.552" height="40.159" transform="translate(-0.837 -1.399)" fill="url(#linear-gradient)"/>
        </g>
      </g>
      <path id="Path_1046" data-name="Path 1046" d="M1381.448,696.77c1.877,1.024,2.591,3.85,1.594,6.312s-3.327,3.628-5.2,2.6-2.591-3.849-1.594-6.311,3.327-3.628,5.2-2.6" transform="translate(-493.907 -299.834)" fill="#1943aa" fill-rule="evenodd"/>
      <path id="Path_1047" data-name="Path 1047" d="M1336.157,620.938c1.877,1.024,2.59,3.849,1.593,6.311s-3.326,3.628-5.2,2.6-2.59-3.849-1.594-6.312a4.547,4.547,0,0,1,3.192-2.922h0l-.443-.337a10.357,10.357,0,0,0-10.738-10.7c3.719-2.359,12.216,1.261,12.523,11.054h-.143a3.032,3.032,0,0,1,.814.3" transform="translate(-447.946 -223.7)" fill="#26a0f8" fill-rule="evenodd"/>
      <path id="Path_1048" data-name="Path 1048" d="M1340.722,764.925a8.594,8.594,0,0,0,4.824-3.072l-.208-.487a7.693,7.693,0,0,1-4.738,3.05c-.046-.033-.19-.159-.245-.192a.72.72,0,0,0-.429-.105.854.854,0,0,0-.725.8.769.769,0,0,0,.8.725.752.752,0,0,0,.724-.715" transform="translate(-462.073 -356.355)" fill="#1943aa"/>
      <path id="Path_1049" data-name="Path 1049" d="M1409.666,725.8c.849.29,1.192,1.537.766,2.784s-1.461,2.022-2.31,1.732-1.192-1.537-.766-2.784,1.46-2.022,2.31-1.732" transform="translate(-521.206 -325.358)" fill="#76c5fb" fill-rule="evenodd"/>
      <path id="Path_1053" data-name="Path 1053" d="M1605.717,1161.459l5.323-.042.336,1.892h-7.608c.31-.774.672-1.839,1.949-1.849" transform="translate(-692.239 -704.389)" fill="#0045e5" fill-rule="evenodd"/>
      <path id="Path_1054" data-name="Path 1054" d="M1782.9,829.705c-4.478,1.746-3.086,28.278-7.793,30.471-4.419,5.543,5.139,4.837,7.793,3.768,4.067-1.638,6.222-18.089,6.222-18.089Z" transform="translate(-840.301 -415.808)" fill="#ffcb73" fill-rule="evenodd"/>
      <path id="Path_1055" data-name="Path 1055" d="M1689.885,1024.724c-1.663,5.009-6.113,11.089-7.607,14.215a5.715,5.715,0,0,0-3.44.354c-.661.359-5.088,3.714-4.115,4.523,1.125.934,1.274-1.128,3.173-1.215.338-.015,1.318-.176,1.664.089a.207.207,0,0,1,.072.121c-.037.021-.073.041-.109.058l.12.021c.041.682.788-.191,1.073.12a4.419,4.419,0,0,0,3.038.746c1.883-.715,4.678.887,4.678.887l-.721-2.131c1.762.24,8.692-8.887,8.737-8.905a5.338,5.338,0,0,0,2.291-2.672v-4.762Z" transform="translate(-753.848 -585.469)" fill="#f7cccf" fill-rule="evenodd"/>
      <g id="Group_12861" data-name="Group 12861" transform="translate(942.427 410.333)">
        <g id="Group_12860" data-name="Group 12860" transform="translate(0 0)" clip-path="url(#clip-path-3)">
          <rect id="Rectangle_188" data-name="Rectangle 188" width="42.351" height="48.587" transform="translate(0)" fill="url(#linear-gradient-2)"/>
        </g>
      </g>
      <path id="Path_1057" data-name="Path 1057" d="M1893.91,663.726a11.172,11.172,0,0,1-.55,4.089c-1.179,3.381,1.4,9.2,5.917,8.811l-.016,3.08h.071c-2,2.348.466,7.919,2.735,7.937,1.957.015,5.541-4.21,5.792-7.937v-6.314a1.782,1.782,0,0,0,.685-.3c.454-.277,2.736-2.533,2.552-3.586s-2.285-1.174-2.285-1.174l-.485-.426c1.269-3.122,2.233-3.177-1.036-4.912s-9.862-1.6-9.862-1.6l-3.412,1.023Z" transform="translate(-943.928 -269.373)" fill="#f7cccf" fill-rule="evenodd"/>
      <path id="Path_1058" data-name="Path 1058" d="M1940.665,771.025l-.016,3.042a11.6,11.6,0,0,0,3.124-.982,5.764,5.764,0,0,0,2.991-3.2,15.5,15.5,0,0,1-5.471,1.126Z" transform="translate(-985.317 -363.765)" fill="#ed9c9d" fill-rule="evenodd"/>
      <path id="Path_1059" data-name="Path 1059" d="M1968.391,846.564c1.606-3.565,5.355-7.7,7.1-4.2h0c2.069,2.069,2.505,2.356,2.555,5.1.122,6.838,4.74,17.64-.62,24.652-2.21,2.893-16.721,12.467-19.856,12.265-2.4-.155-2.387-1.593-1.5-6.172,2.885-1.881,10.27-8.337,12.327-11.7,1.78-2.912-1.136-17.443-.01-19.943" transform="translate(-998.26 -425.664)" fill="#f7cccf" fill-rule="evenodd"/>
      <g id="Group_12863" data-name="Group 12863" transform="translate(945.683 382.238)">
        <g id="Group_12862" data-name="Group 12862" transform="translate(0 0)" clip-path="url(#clip-path-4)">
          <rect id="Rectangle_189" data-name="Rectangle 189" width="27.357" height="23.068" transform="translate(-0.114 -0.902)" fill="url(#linear-gradient-3)"/>
        </g>
      </g>
      <path id="Path_1061" data-name="Path 1061" d="M2039.39,838.664c1.5-3.339,5.683-5.307,8.605-3.577a6.226,6.226,0,0,1,2.679,3.467c2.075,7.656,2.853,23.07,1,27.67a22.549,22.549,0,0,0-11.291-5.179c-.064-9.181-1.9-20.364-.99-22.381" transform="translate(-1071 -419.932)" fill="#ffd184" fill-rule="evenodd"/>
      <path id="Path_1062" data-name="Path 1062" d="M2116.37,862.926c4.067,7.247,3.641,21.949,1.169,28.075a26.446,26.446,0,0,0-2.689-2.1c3.6-7.9,1.279-19.586,1.52-25.976" transform="translate(-1136.868 -444.709)" fill="#ffbc4c" fill-rule="evenodd"/>
      <path id="Path_1063" data-name="Path 1063" d="M1922.234,798.629a6.265,6.265,0,0,0,2.806,7.554c3.055-2.216,5.8-4.375,5.8-8.542,0,0,1.054-.022,1.738,1.847,1.129,3.026-.763,9.823-.763,9.823s-2.122-3.068-3.887-3.233a5.636,5.636,0,0,0-2.909.43c-2.257-1.85-3.8.548-5.305,2.3-.476-4.482-.479-7.63,2.523-11.1a6.966,6.966,0,0,1,0,.914" transform="translate(-966.903 -387.913)" fill="#fff" fill-rule="evenodd"/>
      <rect id="Rectangle_190" data-name="Rectangle 190" width="6.792" height="1.65" transform="translate(940.307 430.019)" fill="#76c5fb"/>
      <path id="Path_1064" data-name="Path 1064" d="M1558.035,858.182h-43.127a2.669,2.669,0,0,0-2.777,2.777l3.517,25.9a2.94,2.94,0,0,0,2.778,2.778h43.127a2.669,2.669,0,0,0,2.777-2.778l-3.517-25.9a2.94,2.94,0,0,0-2.778-2.777" transform="translate(-612.5 -440.582)" fill="#0042e7" fill-rule="evenodd"/>
      <g id="Group_12865" data-name="Group 12865" transform="translate(897.196 417.6)">
        <g id="Group_12864" data-name="Group 12864" transform="translate(0 0)" clip-path="url(#clip-path-5)">
          <rect id="Rectangle_191" data-name="Rectangle 191" width="52.61" height="31.452" transform="translate(-0.186 0)" fill="url(#linear-gradient-4)"/>
        </g>
      </g>
      <g id="Group_12867" data-name="Group 12867" transform="translate(901.667 445)">
        <g id="Group_12866" data-name="Group 12866" transform="translate(0 0)" clip-path="url(#clip-path-6)">
          <rect id="Rectangle_192" data-name="Rectangle 192" width="47.402" height="4.052" transform="translate(0 0)" fill="url(#linear-gradient-5)"/>
        </g>
      </g>
      <path id="Path_1067" data-name="Path 1067" d="M1615.6,979.565h-16.218a1,1,0,0,0-1.044,1.044l1.5,9.786a1.114,1.114,0,0,0,1.045,1.045h16.218a1,1,0,0,0,1.044-1.045l-1.5-9.786a1.114,1.114,0,0,0-1.045-1.044" transform="translate(-687.511 -546.182)" fill="#0042e7" fill-rule="evenodd"/>
      <path id="Path_1068" data-name="Path 1068" d="M1622.234,979.565h-16.218a1,1,0,0,0-1.044,1.044l1.5,9.786a1.114,1.114,0,0,0,1.045,1.045h16.218a1,1,0,0,0,1.045-1.045l-1.5-9.786a1.114,1.114,0,0,0-1.044-1.044" transform="translate(-693.278 -546.182)" fill="#1b42a2" fill-rule="evenodd"/>
      <path id="Path_1069" data-name="Path 1069" d="M1638.328,1049.018h-1.036l-2.14,13.185c-.118.726-.418,2.26-.49,3.283-.01.144,1.244.038,1.555.038h10.271l-.125-.469c-.192-.724-.525-1.38-1.167-1.38h-2.376l1.328-14.657Z" transform="translate(-719.116 -606.604)" fill="#1b42a2" fill-rule="evenodd"/>
      <path id="Path_1070" data-name="Path 1070" d="M1691.671,1049.018l-2.385,14.724h1.046l1.977-12.655Z" transform="translate(-766.638 -606.604)" fill="#0042e7" fill-rule="evenodd"/>
      <path id="Path_1071" data-name="Path 1071" d="M1716.334,1161.744h25.749a.927.927,0,0,1,.924.924v.925h-26.674Z" transform="translate(-790.169 -704.673)" fill="#0045e5" fill-rule="evenodd"/>
      <path id="Path_1072" data-name="Path 1072" d="M1692.511,1161.459l-5.323-.042-.336,1.892h7.608c-.31-.774-.672-1.839-1.949-1.849" transform="translate(-764.52 -704.389)" fill="#0045e5" fill-rule="evenodd"/>
      <g id="Group_12869" data-name="Group 12869" transform="translate(945.394 453.593)">
        <g id="Group_12868" data-name="Group 12868" clip-path="url(#clip-path-7)">
          <rect id="Rectangle_193" data-name="Rectangle 193" width="13.922" height="5.327" transform="translate(0 0)" fill="url(#linear-gradient-6)"/>
        </g>
      </g>
      <path id="Path_1074" data-name="Path 1074" d="M1883.408,1146.973v-2.123c.4-.822,2.385-2.675,3.453-2.1.592.317-1.275,1.777-1.7,2.262l-.021,1.963h-1.734" transform="translate(-935.519 -688.053)" fill="#1b42a2" fill-rule="evenodd"/>
      <path id="Path_1076" data-name="Path 1076" d="M1887.127,1114.8s-2.642-.873-4.433.1c-.661.359-4.7,3.1-3.725,3.91,1.125.935,1.275-1.128,3.173-1.214.338-.016,1.318-.176,1.663.088.442.338-1.009,2.769-.686,3.121a4.418,4.418,0,0,0,3.038.746c1.883-.715,4.678.888,4.678.888l1.131-4.973c-.662-1.807-2.029-1.3-4.839-2.667" transform="translate(-931.526 -663.52)" fill="#f7cccf" fill-rule="evenodd"/>
      <path id="Path_1077" data-name="Path 1077" d="M1987.11,680.82c1.871,1.22,2.383,4.222,1.143,6.7s-3.275,3.965-5.425,2.55-2.591-4.486-1.351-6.969,3.762-3.506,5.634-2.286" transform="translate(-1020.241 -285.834)" fill="#254fb7" fill-rule="evenodd"/>
      <path id="Path_1078" data-name="Path 1078" d="M1977.858,598.5c1.871,1.22,2.383,4.222,1.142,6.7s-3.762,3.507-5.634,2.286-2.383-4.222-1.142-6.7a4.75,4.75,0,0,1,3.564-2.782h0l-.434-.387a9.93,9.93,0,0,0-.342-6.583c-1.122-2.662-2.417-4.12-4.981-5.069l-.647-.276.006-.431a8.768,8.768,0,0,1,7.8,12.871l-.149-.013a3.17,3.17,0,0,1,.823.384" transform="translate(-1010.315 -203.148)" fill="#26a0f8" fill-rule="evenodd"/>
      <path id="Path_1079" data-name="Path 1079" d="M2016.74,709.615c-.815-.25-1.859.6-2.331,1.9s-.2,2.555.62,2.8,1.858-.6,2.331-1.9.195-2.554-.62-2.8" transform="translate(-1049.286 -311.295)" fill="#76c5fb" fill-rule="evenodd"/>
      <rect id="Rectangle_194" data-name="Rectangle 194" width="0.766" height="6.015" transform="translate(957.846 418.39)" fill="#fff"/>
      <path id="Path_1080" data-name="Path 1080" d="M920.253,1161.459l5.323-.042.336,1.892H918.3c.31-.774.672-1.839,1.949-1.849" transform="translate(-95.902 -704.389)" fill="#0045e5" fill-rule="evenodd"/>
      <rect id="Rectangle_195" data-name="Rectangle 195" width="6.792" height="1.65" transform="translate(851.18 430.019)" fill="#76c5fb"/>
      <path id="Path_1081" data-name="Path 1081" d="M872.571,858.182H829.444a2.669,2.669,0,0,0-2.778,2.777l3.517,25.9a2.939,2.939,0,0,0,2.778,2.778h43.127a2.669,2.669,0,0,0,2.778-2.778l-3.517-25.9a2.94,2.94,0,0,0-2.778-2.777" transform="translate(-16.163 -440.582)" fill="#0042e7" fill-rule="evenodd"/>
      <g id="Group_12871" data-name="Group 12871" transform="translate(808.068 417.6)">
        <g id="Group_12870" data-name="Group 12870" transform="translate(0 0)" clip-path="url(#clip-path-8)">
          <rect id="Rectangle_196" data-name="Rectangle 196" width="52.61" height="31.452" transform="translate(-0.186 0)" fill="url(#linear-gradient-4)"/>
        </g>
      </g>
      <g id="Group_12873" data-name="Group 12873" transform="translate(812.54 445)">
        <g id="Group_12872" data-name="Group 12872" transform="translate(0 0)" clip-path="url(#clip-path-9)">
          <rect id="Rectangle_197" data-name="Rectangle 197" width="47.403" height="4.052" transform="translate(0 0)" fill="url(#linear-gradient-5)"/>
        </g>
      </g>
      <path id="Path_1084" data-name="Path 1084" d="M930.142,979.565H913.924a1,1,0,0,0-1.044,1.044l1.5,9.786a1.114,1.114,0,0,0,1.045,1.045h16.218a1,1,0,0,0,1.045-1.045l-1.5-9.786a1.114,1.114,0,0,0-1.045-1.044" transform="translate(-91.175 -546.182)" fill="#0042e7" fill-rule="evenodd"/>
      <path id="Path_1085" data-name="Path 1085" d="M936.771,979.565H920.553a1,1,0,0,0-1.044,1.044l1.5,9.786a1.114,1.114,0,0,0,1.044,1.045h16.218a1,1,0,0,0,1.044-1.045l-1.5-9.786a1.114,1.114,0,0,0-1.044-1.044" transform="translate(-96.942 -546.182)" fill="#1b42a2" fill-rule="evenodd"/>
      <path id="Path_1086" data-name="Path 1086" d="M952.865,1049.018h-1.036l-2.14,13.185c-.118.726-.418,2.26-.49,3.283-.01.144,1.244.038,1.555.038h10.271l-.124-.469c-.192-.724-.525-1.38-1.167-1.38h-2.375l1.328-14.657Z" transform="translate(-122.78 -606.604)" fill="#1b42a2" fill-rule="evenodd"/>
      <path id="Path_1087" data-name="Path 1087" d="M1006.208,1049.018l-2.385,14.724h1.046l1.978-12.655Z" transform="translate(-170.302 -606.604)" fill="#0042e7" fill-rule="evenodd"/>
      <path id="Path_1088" data-name="Path 1088" d="M1030.871,1161.744h25.75a.927.927,0,0,1,.924.924v.925h-26.674Z" transform="translate(-193.833 -704.673)" fill="#0045e5" fill-rule="evenodd"/>
      <path id="Path_1089" data-name="Path 1089" d="M1007.048,1161.459l-5.323-.042-.336,1.892H1009c-.31-.774-.672-1.839-1.949-1.849" transform="translate(-168.184 -704.389)" fill="#0045e5" fill-rule="evenodd"/>
      <path id="Path_1090" data-name="Path 1090" d="M1197.945,1146.973v-2.123c.4-.822,2.385-2.675,3.452-2.1.592.317-1.274,1.777-1.7,2.262l-.021,1.963h-1.733" transform="translate(-339.183 -688.053)" fill="#1b42a2" fill-rule="evenodd"/>
      <path id="Path_1091" data-name="Path 1091" d="M1912.7,737.978c-.437.7.722,1.731,1.36,1.9,1.486.382,3.136-.149,3.314-1.73-.751-.2-1.963.265-3.216.078-.961-.143-1.458-.243-1.458-.243" transform="translate(-960.922 -336.007)" fill="#fff" fill-rule="evenodd"/>
      <path id="Path_1092" data-name="Path 1092" d="M1940.774,741.761a8.6,8.6,0,0,0,4.824-3.072l-.208-.486a7.7,7.7,0,0,1-4.738,3.05c-.046-.033-.19-.159-.245-.192a.716.716,0,0,0-.429-.1.853.853,0,0,0-.725.8.769.769,0,0,0,.8.725.75.75,0,0,0,.724-.715" transform="translate(-984.103 -336.203)" fill="#1943aa"/>
      <path id="Path_1093" data-name="Path 1093" d="M1463.862,414.5a15.236,15.236,0,1,0,15.236,15.236,15.236,15.236,0,0,0-15.236-15.236" transform="translate(-557.269 -54.592)" fill="#003cd3" fill-rule="evenodd"/>
      <g id="Group_12875" data-name="Group 12875" transform="translate(889.872 359.911)">
        <g id="Group_12874" data-name="Group 12874" transform="translate(0)" clip-path="url(#clip-path-10)">
          <rect id="Rectangle_198" data-name="Rectangle 198" width="30.473" height="30.473" transform="translate(0 0)" fill="url(#linear-gradient-9)"/>
        </g>
      </g>
      <path id="Path_1095" data-name="Path 1095" d="M1473.645,438.376a12.035,12.035,0,1,0,12.034,12.035,12.035,12.035,0,0,0-12.034-12.035" transform="translate(-568.565 -75.361)" fill="#fff" fill-rule="evenodd"/>
      <path id="Path_1096" data-name="Path 1096" d="M1478.627,464.425a.79.79,0,1,0,.787.791.789.789,0,0,0-.787-.791m-10.439-10.535a.789.789,0,1,0,.788.791A.789.789,0,0,0,1468.188,453.89Zm20.1-4.956h0a.426.426,0,0,1-.151.581l-.352.207a.426.426,0,0,1-.582-.152h0a.426.426,0,0,1,.151-.582l.352-.207A.426.426,0,0,1,1488.292,448.934Zm-14.614,13.943h0a.426.426,0,0,1,.142.584l-.213.349a.425.425,0,0,1-.725-.442l.213-.349A.426.426,0,0,1,1473.679,462.877Zm10.84-17.779h0a.426.426,0,0,1,.141.584l-.213.349a.426.426,0,0,1-.584.142h0a.427.427,0,0,1-.141-.584l.213-.349A.427.427,0,0,1,1484.519,445.1Zm-.69,17.8h0a.426.426,0,0,0-.144.583l.211.35a.425.425,0,0,0,.728-.44l-.211-.35A.426.426,0,0,0,1483.829,462.9Zm-10.766-17.823h0a.426.426,0,0,0-.144.583l.211.35a.426.426,0,0,0,.584.144h0a.426.426,0,0,0,.144-.583l-.211-.35A.426.426,0,0,0,1473.063,445.075Zm14.124,14.438h0a.426.426,0,0,0,.149.582l.351.208a.426.426,0,0,0,.582-.149h0a.426.426,0,0,0-.149-.582l-.351-.209A.426.426,0,0,0,1487.187,459.512ZM1469.273,448.9h0a.426.426,0,0,0,.149.582l.352.208a.426.426,0,0,0,.582-.149h0a.427.427,0,0,0-.149-.582l-.352-.208A.426.426,0,0,0,1469.273,448.9Zm8.809,5.239a.8.8,0,0,1,.566-.233l0,.8,0-.8a.8.8,0,1,1-.566.233Zm5.431,5.587c.229.271-2.621-2.288-4.215-3.745a1.433,1.433,0,0,1-1.843-.482l-7.085,4.057a.427.427,0,0,1-.186.508l-.353.207a.427.427,0,0,1-.543-.1l-.005,0-.033-.059h0l-.005-.01h0l-.027-.048,0,0a.427.427,0,0,1,.181-.521l.352-.207a.426.426,0,0,1,.552.106l7.08-4.054a1.433,1.433,0,0,1,.875-2.057c.1-2.488.352-7.682.427-8.558h-.021a.784.784,0,1,1,.045,0l.381,8.578a1.432,1.432,0,0,1,.791,2.081Zm5.661-5.789a.79.79,0,1,0,.788.791A.789.789,0,0,0,1489.174,453.933Z" transform="translate(-573.6 -79.545)" fill="#1e2187" fill-rule="evenodd"/>
      <g id="Group_12877" data-name="Group 12877" transform="translate(910.246 380.09)">
        <g id="Group_12876" data-name="Group 12876" clip-path="url(#clip-path-11)">
          <rect id="Rectangle_199" data-name="Rectangle 199" width="28.951" height="30.459" transform="translate(0 0)" fill="url(#linear-gradient-10)"/>
        </g>
      </g>
      <g id="Group_12878" data-name="Group 12878" transform="translate(915.805 387.755)">
        <path id="Path_1098" data-name="Path 1098" d="M1636.65,633.4v-.515a1.556,1.556,0,0,1,.185-.776,1.445,1.445,0,0,1,.475-.515,3.387,3.387,0,0,1,.642-.321,6.865,6.865,0,0,1,.7-.226l.644-.169a1.355,1.355,0,0,0,.475-.214.408.408,0,0,0,.183-.335.621.621,0,0,0-.2-.542,1.254,1.254,0,0,0-.691-.143h-.25a.9.9,0,0,0-.9.434.509.509,0,0,1-.476.332h-.419a.417.417,0,0,1-.136-.025.349.349,0,0,1-.15-.124.381.381,0,0,1-.078-.243,1.022,1.022,0,0,1,.308-.727,1.944,1.944,0,0,1,.767-.483,2.845,2.845,0,0,1,.955-.162h.476a3.946,3.946,0,0,1,.834.079,2.156,2.156,0,0,1,.665.261,1.2,1.2,0,0,1,.462.52,1.891,1.891,0,0,1,.162.822,1.394,1.394,0,0,1-.184.721,1.439,1.439,0,0,1-.474.5,3.474,3.474,0,0,1-.645.317,7.054,7.054,0,0,1-.7.224l-.642.167a1.608,1.608,0,0,0-.477.2.342.342,0,0,0-.185.284h2.93a.335.335,0,0,1,.339.335v.332a.313.313,0,0,1-.1.234.331.331,0,0,1-.238.1h-3.915a.336.336,0,0,1-.24-.1A.31.31,0,0,1,1636.65,633.4Z" transform="translate(-1636.65 -628.646)" fill="#fff"/>
      </g>
      <g id="Group_12879" data-name="Group 12879" transform="translate(920.512 387.783)">
        <path id="Path_1099" data-name="Path 1099" d="M1672.857,632.7v-.419a.794.794,0,0,1,.219-.55l2.331-2.648a.714.714,0,0,1,.55-.219h1.1a.33.33,0,0,1,.243.1.323.323,0,0,1,.1.236v2.835h.388a.331.331,0,0,1,.243.1.322.322,0,0,1,.1.236v.331a.311.311,0,0,1-.1.235.337.337,0,0,1-.24.1h-.388v.557a.31.31,0,0,1-.1.234.336.336,0,0,1-.24.1h-.656a.325.325,0,0,1-.234-.093.308.308,0,0,1-.1-.231v-.565H1673.2a.337.337,0,0,1-.24-.1A.312.312,0,0,1,1672.857,632.7Zm1.418-.667h1.8V629.99Z" transform="translate(-1672.857 -628.861)" fill="#fff"/>
        <path id="Path_1100" data-name="Path 1100" d="M1713.988,633.816a.206.206,0,0,1-.01-.063.344.344,0,0,1,.049-.166l2.293-4.391a.628.628,0,0,1,.614-.335h.592a.149.149,0,0,1,.162.1.206.206,0,0,1,.011.067.325.325,0,0,1-.053.166l-2.289,4.391a.623.623,0,0,1-.614.332h-.592A.149.149,0,0,1,1713.988,633.816Z" transform="translate(-1708.63 -628.861)" fill="#fff"/>
        <path id="Path_1101" data-name="Path 1101" d="M1743.107,629.528V629.2a.315.315,0,0,1,.1-.236.332.332,0,0,1,.24-.1h3.777a.326.326,0,0,1,.238.1.319.319,0,0,1,.1.236v.325a1.448,1.448,0,0,1-.215.642l-1.852,3.424a.528.528,0,0,1-.462.332h-.723a.215.215,0,0,1-.2-.093.2.2,0,0,1,0-.2l2.038-3.763h-2.7a.334.334,0,0,1-.243-.1A.317.317,0,0,1,1743.107,629.528Z" transform="translate(-1733.973 -628.861)" fill="#fff"/>
      </g>
      <path id="Path_1102" data-name="Path 1102" d="M1639.5,688.81h16.758a.542.542,0,1,1,0,1.084H1639.5a.542.542,0,1,1,0-1.084" transform="translate(-722.853 -293.233)" fill="#fff" fill-rule="evenodd"/>
      <path id="Path_1103" data-name="Path 1103" d="M1639.5,714.138h11.839a.542.542,0,0,1,0,1.084H1639.5a.542.542,0,1,1,0-1.084" transform="translate(-722.853 -315.267)" fill="#fff" fill-rule="evenodd"/>
      <g id="Group_12881" data-name="Group 12881" transform="translate(855.748 353.073)">
        <g id="Group_12880" data-name="Group 12880" clip-path="url(#clip-path-12)">
          <rect id="Rectangle_200" data-name="Rectangle 200" width="29.29" height="22.932" transform="translate(0 0)" fill="url(#linear-gradient-11)"/>
        </g>
      </g>
      <g id="Group_12883" data-name="Group 12883" transform="translate(834.242 364.702)">
        <g id="Group_12882" data-name="Group 12882" transform="translate(0)" clip-path="url(#clip-path-13)">
          <rect id="Rectangle_201" data-name="Rectangle 201" width="29.29" height="22.899" transform="translate(0 0)" fill="url(#linear-gradient-12)"/>
        </g>
      </g>
      <path id="Path_1106" data-name="Path 1106" d="M1063.644,514.909a1.485,1.485,0,1,1-1.485,1.485,1.484,1.484,0,0,1,1.485-1.485" transform="translate(-221.053 -141.943)" fill="#fff" fill-rule="evenodd"/>
      <path id="Path_1107" data-name="Path 1107" d="M1113.127,514.909a1.485,1.485,0,1,1-1.485,1.485,1.485,1.485,0,0,1,1.485-1.485" transform="translate(-264.102 -141.943)" fill="#fff" fill-rule="evenodd"/>
      <path id="Path_1108" data-name="Path 1108" d="M1162.608,514.909a1.485,1.485,0,1,1-1.484,1.485,1.485,1.485,0,0,1,1.484-1.485" transform="translate(-307.15 -141.943)" fill="#fff" fill-rule="evenodd"/>
      <path id="Path_1109" data-name="Path 1109" d="M1227.984,425.867a1.485,1.485,0,1,1-1.484,1.485,1.485,1.485,0,0,1,1.484-1.485" transform="translate(-364.025 -64.479)" fill="#fff" fill-rule="evenodd"/>
      <path id="Path_1110" data-name="Path 1110" d="M1277.466,425.867a1.485,1.485,0,1,1-1.485,1.485,1.485,1.485,0,0,1,1.485-1.485" transform="translate(-407.072 -64.479)" fill="#fff" fill-rule="evenodd"/>
      <path id="Path_1111" data-name="Path 1111" d="M1326.951,425.867a1.485,1.485,0,1,1-1.484,1.485,1.485,1.485,0,0,1,1.484-1.485" transform="translate(-450.123 -64.479)" fill="#fff" fill-rule="evenodd"/>
      <g id="Group_12885" data-name="Group 12885" transform="translate(931.041 351.752)">
        <g id="Group_12884" data-name="Group 12884" transform="translate(0)" clip-path="url(#clip-path-14)">
          <rect id="Rectangle_202" data-name="Rectangle 202" width="25.08" height="25.08" transform="translate(-0.099 -0.099)" fill="url(#linear-gradient-13)"/>
        </g>
      </g>
      <g id="Group_12887" data-name="Group 12887" transform="translate(954.796 359.443)">
        <g id="Group_12886" data-name="Group 12886" clip-path="url(#clip-path-15)">
          <rect id="Rectangle_203" data-name="Rectangle 203" width="16.246" height="16.246" transform="translate(-0.052 -0.052)" fill="url(#linear-gradient-14)"/>
        </g>
      </g>
    </g>
  </g>
</svg>
