<svg xmlns="http://www.w3.org/2000/svg" xmlns:xlink="http://www.w3.org/1999/xlink" width="20" height="20" viewBox="0 0 20 20">
  <defs>
    <clipPath id="clip-path">
      <rect id="home" width="20" height="20" transform="translate(310 55)" fill="#373d49"/>
    </clipPath>
  </defs>
  <g id="help" transform="translate(-310 -55)" clip-path="url(#clip-path)">
    <g id="customer" transform="translate(311.547 54.762)">
      <g id="Group_1" data-name="Group 1" transform="translate(0.724 0.238)">
        <path id="Path_5" data-name="Path 5" d="M16.061,15.009c-.448-1.332-2.231-2.166-3.5-2.725-.5-.218-1.878-.588-2.043-1.216a1.3,1.3,0,0,1,0-.643,1.243,1.243,0,0,1-.235.023H9.448a1.2,1.2,0,1,1,0-2.4h.829a1.2,1.2,0,0,1,.743.258,5.333,5.333,0,0,0,.879-.192,7.438,7.438,0,0,0,.709-2.449c.27-3.344-1.78-5.3-4.719-4.962A3.94,3.94,0,0,0,4.336,4.6,7.066,7.066,0,0,0,5.8,9.365c.361.5.74.814.681,1.411-.068.706-.822.9-1.362,1.119a15.6,15.6,0,0,0-1.654.827C2.34,13.341,1.11,14.086.834,15.106.221,17.366,2.289,18.05,4,18.366a25.555,25.555,0,0,0,4.475.292c2.458,0,6.877-.1,7.589-1.946a3.076,3.076,0,0,0,0-1.7Z" transform="translate(-0.724 1.342)" fill="#373d49"/>
        <path id="Path_6" data-name="Path 6" d="M10.145,10.492a.626.626,0,0,0-.524-.285H8.792a.624.624,0,1,0,0,1.248h.829a.619.619,0,0,0,.551-.338,5.6,5.6,0,0,0,2.866-.965,1.029,1.029,0,0,0,.56.166h.052a1.041,1.041,0,0,0,1.042-1.043V7.194a1.039,1.039,0,0,0-.594-.939,6.307,6.307,0,0,0-12.6,0A1.038,1.038,0,0,0,.9,7.194V9.275a1.041,1.041,0,0,0,1.041,1.043H2A1.042,1.042,0,0,0,3.037,9.275V7.194a1.039,1.039,0,0,0-.58-.932,5.346,5.346,0,0,1,10.678,0,1.04,1.04,0,0,0-.579.932V9.275a1.047,1.047,0,0,0,.074.387,5.1,5.1,0,0,1-2.486.83Z" transform="translate(-0.068 -0.238)" fill="#373d49"/>
      </g>
    </g>
  </g>
</svg>
