<svg xmlns="http://www.w3.org/2000/svg" xmlns:xlink="http://www.w3.org/1999/xlink" width="204" height="127" viewBox="0 0 204 127">
  <defs>
    <clipPath id="clip-path">
      <rect id="Rectangle_206" data-name="Rectangle 206" width="204" height="127" rx="8" transform="translate(156 129)" fill="#1e0040"/>
    </clipPath>
  </defs>
  <g id="img" transform="translate(-156 -129)" clip-path="url(#clip-path)">
    <g id="Group_13025" data-name="Group 13025" transform="translate(73.023 69.9)">
      <g id="Group_12891" data-name="Group 12891" transform="translate(88.123 143.36)">
        <g id="Group_12890" data-name="Group 12890">
          <path id="Path_1114" data-name="Path 1114" d="M109.445,239.827c-.522-.4-.915-.424-1.347-.736-.038-.514-.169-1.392-.228-1.909.49-.438.745-.544,1.17-.914a.4.4,0,0,0-.087-.206c-.105-.164-.21-.327-.32-.487a9.7,9.7,0,0,0-1.4-1.618c-.483.443-.882.876-1.281,1.309a6.82,6.82,0,0,0-1.842-.43,13.9,13.9,0,0,0-.318-1.753,7.961,7.961,0,0,0-2.448.747,8.824,8.824,0,0,0,.462,1.381,13.692,13.692,0,0,0-1.37,1.363c-.57-.316-1.041-.467-1.574-.769a5.087,5.087,0,0,0-.968,2.785c.609.078.966.053,1.523.093a7.031,7.031,0,0,0,.537,1.885c-.453.424-.705.8-1.1,1.124a4.612,4.612,0,0,0,1.484,1.877c.4-.421.65-.682,1.011-1.048a8.118,8.118,0,0,0,1.778.56,6.112,6.112,0,0,1,.262,1.392,6.788,6.788,0,0,0,2.644-.123,11.384,11.384,0,0,0-.149-1.483,6.13,6.13,0,0,0,1.342-1.316,8.136,8.136,0,0,1,1.3.375A5.44,5.44,0,0,0,109.445,239.827Zm-4.99.768c-.386.138-.774.259-1.778-.385a1.754,1.754,0,0,1-.195-2.649,1.574,1.574,0,0,1,1.432-.591,2.4,2.4,0,0,1,1.253.486,1.809,1.809,0,0,1,.548,1.764A2,2,0,0,1,104.454,240.595Z" transform="translate(-97.701 -232.887)" fill="#ab63ff"/>
          <path id="Path_1115" data-name="Path 1115" d="M104.067,244.437a6.411,6.411,0,0,1-1.018-.08.2.2,0,0,1-.163-.172l-.009-.077a5.735,5.735,0,0,0-.21-1.161,8.14,8.14,0,0,1-1.529-.488l-.049-.019c-.291.3-.539.551-.917.952a.2.2,0,0,1-.26.023,4.8,4.8,0,0,1-1.547-1.958.2.2,0,0,1,.056-.228,5.169,5.169,0,0,0,.555-.557c.134-.149.272-.3.437-.464a7.208,7.208,0,0,1-.476-1.652c-.145-.008-.279-.012-.409-.017a9.163,9.163,0,0,1-.967-.068.2.2,0,0,1-.171-.2,5.232,5.232,0,0,1,1-2.893.2.2,0,0,1,.259-.061c.262.148.507.258.766.375.212.1.43.193.664.316a13.082,13.082,0,0,1,1.1-1.085l.091-.083a8.344,8.344,0,0,1-.421-1.283.2.2,0,0,1,.1-.219,8.141,8.141,0,0,1,2.508-.767.2.2,0,0,1,.219.147,14.233,14.233,0,0,1,.3,1.621,7.014,7.014,0,0,1,1.612.379c.367-.4.75-.808,1.2-1.223a.2.2,0,0,1,.266,0,9.886,9.886,0,0,1,1.424,1.651c.109.158.213.32.317.482a.584.584,0,0,1,.124.326.194.194,0,0,1-.067.144,6.65,6.65,0,0,1-.536.414,6.759,6.759,0,0,0-.556.43c.019.163.044.352.07.55.052.4.11.841.139,1.171a3.045,3.045,0,0,0,.473.238,3.385,3.385,0,0,1,.806.452.2.2,0,0,1,.072.2,5.6,5.6,0,0,1-.944,2.176.2.2,0,0,1-.218.072c-.142-.044-.263-.086-.377-.125a5.178,5.178,0,0,0-.786-.222,6.383,6.383,0,0,1-1.206,1.184,4.386,4.386,0,0,1,.077.754c.008.189.016.384.046.622a.2.2,0,0,1-.149.215A7.374,7.374,0,0,1,104.067,244.437Zm-.808-.445a6.556,6.556,0,0,0,2.252-.1c-.017-.178-.023-.335-.029-.477a3.638,3.638,0,0,0-.1-.8.2.2,0,0,1,.077-.208,5.972,5.972,0,0,0,1.3-1.271.2.2,0,0,1,.192-.078,5.46,5.46,0,0,1,.964.259l.23.079a5.2,5.2,0,0,0,.77-1.789,3.257,3.257,0,0,0-.623-.329,3.036,3.036,0,0,1-.621-.33.2.2,0,0,1-.08-.144c-.024-.326-.088-.814-.144-1.244-.032-.243-.062-.473-.083-.657a.2.2,0,0,1,.064-.168,6.93,6.93,0,0,1,.666-.524c.133-.1.261-.186.407-.307l-.023-.036c-.109-.168-.211-.327-.317-.483a9.506,9.506,0,0,0-1.236-1.46c-.42.4-.783.791-1.136,1.173a.2.2,0,0,1-.215.05,6.6,6.6,0,0,0-1.789-.418.2.2,0,0,1-.177-.172,13.781,13.781,0,0,0-.271-1.553,7.733,7.733,0,0,0-2.073.631,8.664,8.664,0,0,0,.39,1.137l.026.066a.2.2,0,0,1-.05.216l-.19.175a11.414,11.414,0,0,0-1.161,1.168.2.2,0,0,1-.247.048c-.274-.152-.53-.267-.777-.378-.206-.092-.418-.188-.638-.3a4.867,4.867,0,0,0-.831,2.352c.283.029.513.037.754.044.18.006.366.012.582.027a.2.2,0,0,1,.18.171,6.779,6.779,0,0,0,.522,1.832.2.2,0,0,1-.046.221c-.2.187-.359.363-.513.535a6.4,6.4,0,0,1-.484.5,4.407,4.407,0,0,0,1.226,1.56c.35-.37.591-.617.892-.921a.2.2,0,0,1,.211-.045l.17.066a7.056,7.056,0,0,0,1.56.482.2.2,0,0,1,.164.135A5.8,5.8,0,0,1,103.259,243.992Zm.364-3.4a2.587,2.587,0,0,1-1.363-.526,1.891,1.891,0,0,1-.766-1.228,2.139,2.139,0,0,1,.524-1.707,1.761,1.761,0,0,1,1.616-.663,2.549,2.549,0,0,1,1.351.531,2.011,2.011,0,0,1,.611,1.959,2.186,2.186,0,0,1-1.385,1.513h0A1.685,1.685,0,0,1,103.623,240.589Zm.521-.3h0Zm-.744-3.445a1.41,1.41,0,0,0-1.075.533,1.766,1.766,0,0,0-.444,1.4,1.522,1.522,0,0,0,.591.963c.94.6,1.264.488,1.606.366h0a1.816,1.816,0,0,0,1.137-1.237,1.611,1.611,0,0,0-.486-1.57,2.2,2.2,0,0,0-1.156-.44A1.073,1.073,0,0,0,103.4,236.839Z" transform="translate(-97.391 -232.576)"/>
        </g>
      </g>
      <g id="Group_12892" data-name="Group 12892" transform="translate(196.323 80.526)">
        <path id="Path_1116" data-name="Path 1116" d="M626.187,84.106a1.219,1.219,0,0,0-1.15.972,1.481,1.481,0,0,0,.582,1.485,1.343,1.343,0,0,0,1.509-.008,1.444,1.444,0,0,0,.6-1.181,1.287,1.287,0,0,0-.687-1.132A2.1,2.1,0,0,0,626.187,84.106Z" transform="translate(-624.811 -83.91)" fill="#fff"/>
        <path id="Path_1117" data-name="Path 1117" d="M626.055,86.674a1.516,1.516,0,0,1-.857-.26,1.684,1.684,0,0,1-.663-1.689A1.411,1.411,0,0,1,625.86,83.6h.021a2.3,2.3,0,0,1,.937.154,1.471,1.471,0,0,1,.8,1.306,1.629,1.629,0,0,1-.688,1.345A1.533,1.533,0,0,1,626.055,86.674Zm-.2-2.683a1.027,1.027,0,0,0-.942.818,1.3,1.3,0,0,0,.5,1.282,1.15,1.15,0,0,0,1.286-.007,1.25,1.25,0,0,0,.521-1.018,1.087,1.087,0,0,0-.574-.957,1.935,1.935,0,0,0-.779-.117h-.014Z" transform="translate(-624.501 -83.6)"/>
      </g>
      <g id="Group_12902" data-name="Group 12902" transform="translate(268.385 97.882)">
        <g id="Group_12895" data-name="Group 12895" transform="translate(0.215 0)">
          <g id="Group_12893" data-name="Group 12893">
            <path id="Path_1118" data-name="Path 1118" d="M718.077,221.491h-.012a.2.2,0,0,1-.179-.151c-.231-.991-1.5-2.406-3.684-4.091-.958-.741-1.987-1.448-2.9-2.072-.479-.329-.931-.64-1.306-.91a.2.2,0,1,1,.229-.318c.372.268.822.578,1.3.905.912.627,1.946,1.337,2.913,2.085a12.41,12.41,0,0,1,3.644,3.8,5.779,5.779,0,0,1,2.594-2.817c.406-.277.867-.591,1.405-.995.162-.122.336-.246.519-.377,2.6-1.857,6.945-4.962,7.471-20.571-3.49-.881-8.314-2.5-11.889-5.264-3.886,2.77-9.492,4.511-11.9,5.173.012.167.026.38.042.615.054.817.128,1.936.185,2.213a.2.2,0,1,1-.384.079c-.062-.3-.134-1.391-.192-2.266-.021-.317-.04-.594-.053-.772a.2.2,0,0,1,.144-.2c2.315-.628,8.125-2.4,12.048-5.241a.2.2,0,0,1,.236,0c3.583,2.818,8.51,4.449,12.011,5.321a.2.2,0,0,1,.148.2c-.223,6.99-1.211,12.149-3.021,15.772a13.041,13.041,0,0,1-4.619,5.263c-.181.129-.353.252-.513.372-.545.408-1.009.725-1.419,1a5.332,5.332,0,0,0-2.64,3.116A.2.2,0,0,1,718.077,221.491Z" transform="translate(-705.884 -190.277)"/>
          </g>
          <g id="Group_12894" data-name="Group 12894" transform="translate(2.211 2.569)">
            <path id="Path_1119" data-name="Path 1119" d="M721.635,221.987h0a.065.065,0,0,1-.053-.032,20.485,20.485,0,0,0-4.169-3.59.065.065,0,1,1,.07-.11,21.755,21.755,0,0,1,4.157,3.553,21.756,21.756,0,0,1,3.2-2.695c5.013-3.746,6.244-9.134,6.751-17.759-4.365-1.094-7.59-2.5-9.853-4.292-2.309,1.724-6.327,2.9-8.733,3.612-.5.148-.944.277-1.269.383l.008.071c.034.288.079.682.079.792a.065.065,0,1,1-.13,0c0-.1-.047-.508-.078-.777l-.015-.124a.065.065,0,0,1,.044-.069c.332-.11.792-.245,1.324-.4,2.412-.709,6.449-1.895,8.732-3.621a.066.066,0,0,1,.08,0c2.26,1.8,5.5,3.215,9.9,4.312a.065.065,0,0,1,.049.067c-.507,8.7-1.742,14.125-6.806,17.91a19.591,19.591,0,0,0-3.231,2.74A.065.065,0,0,1,721.635,221.987Z" transform="translate(-711.599 -196.915)"/>
          </g>
        </g>
        <g id="Group_12896" data-name="Group 12896" transform="translate(2.046 14.128)">
          <path id="Path_1120" data-name="Path 1120" d="M717.549,227.536a2.633,2.633,0,0,0-3.453,1.231,5.279,5.279,0,0,1-.372.83,3.965,3.965,0,0,1-1.086.871,3.808,3.808,0,0,0-1.269,1.563,2.233,2.233,0,0,0-.083,1.827,1.881,1.881,0,0,0,2.439.74,11.808,11.808,0,0,1,1.447-.8,3.515,3.515,0,0,1,2.384.5,2.782,2.782,0,0,0,2.39.262,1.8,1.8,0,0,0,.859-1.758,2.849,2.849,0,0,0-.973-1.774,2.979,2.979,0,0,1-1.239-1.946A2.869,2.869,0,0,0,717.549,227.536Z" transform="translate(-710.928 -227.094)" fill="#fff"/>
          <path id="Path_1121" data-name="Path 1121" d="M712.589,234.662a1.964,1.964,0,0,1-1.792-1.028,2.451,2.451,0,0,1,.08-1.99A3.988,3.988,0,0,1,712.211,230c.1-.071.2-.137.305-.2a1.767,1.767,0,0,0,.968-1.123c.037-.1.075-.2.12-.3a2.744,2.744,0,0,1,1.608-1.426,2.7,2.7,0,0,1,2.113.1,3,3,0,0,1,1.136,1.643c.051.128.1.259.139.385a2.211,2.211,0,0,0,.851,1.314c.067.058.134.115.2.174a3.03,3.03,0,0,1,1.036,1.9,2,2,0,0,1-.963,1.95,2.969,2.969,0,0,1-2.562-.257l-.044-.021a3.278,3.278,0,0,0-2.2-.468,3.1,3.1,0,0,0-.794.423,4.742,4.742,0,0,1-.628.37A2.16,2.16,0,0,1,712.589,234.662Zm3.586-7.486a2.517,2.517,0,0,0-.833.145,2.351,2.351,0,0,0-1.38,1.217c-.04.088-.074.179-.111.275a2.135,2.135,0,0,1-1.122,1.312c-.1.063-.2.127-.29.194a3.59,3.59,0,0,0-1.2,1.482,2.036,2.036,0,0,0-.086,1.664,1.7,1.7,0,0,0,2.18.646,4.4,4.4,0,0,0,.576-.341,3.446,3.446,0,0,1,.9-.472,3.6,3.6,0,0,1,2.477.488l.044.02a2.645,2.645,0,0,0,2.217.267,1.6,1.6,0,0,0,.755-1.565,2.639,2.639,0,0,0-.91-1.648c-.062-.057-.126-.111-.19-.166a2.573,2.573,0,0,1-.967-1.485c-.042-.122-.086-.249-.133-.368a2.732,2.732,0,0,0-.95-1.438h0A2.135,2.135,0,0,0,716.175,227.176Z" transform="translate(-710.615 -226.784)" fill="#6319b8"/>
        </g>
        <g id="Group_12897" data-name="Group 12897" transform="translate(0 12.325)">
          <path id="Path_1122" data-name="Path 1122" d="M706.425,222.868a2.488,2.488,0,0,0-.435,2.481,1.492,1.492,0,0,0,1.406,1.045,1.347,1.347,0,0,0,1.094-1.149,2.538,2.538,0,0,0-.376-1.631C707.811,223.078,707,222.213,706.425,222.868Z" transform="translate(-705.637 -222.437)" fill="#fff"/>
          <path id="Path_1123" data-name="Path 1123" d="M706.98,226.285a1.727,1.727,0,0,1-1.482-1.176,2.69,2.69,0,0,1,.47-2.68h0a.8.8,0,0,1,.7-.3c.584.06,1.108.73,1.3,1.077a2.685,2.685,0,0,1,.4,1.76,1.536,1.536,0,0,1-1.268,1.311A1.243,1.243,0,0,1,706.98,226.285Zm-.393-3.766a.42.42,0,0,0-.324.168h0a2.288,2.288,0,0,0-.4,2.281,1.311,1.311,0,0,0,1.2.921,1.149,1.149,0,0,0,.921-.986,2.308,2.308,0,0,0-.353-1.5c-.226-.4-.654-.844-1-.88Zm-.472.039h0Z" transform="translate(-705.328 -222.127)" fill="#6319b8"/>
        </g>
        <g id="Group_12898" data-name="Group 12898" transform="translate(11.153 11.856)">
          <path id="Path_1124" data-name="Path 1124" d="M736.207,221.47a2.478,2.478,0,0,0-1.541,1.987,1.508,1.508,0,0,0,.749,1.591,1.331,1.331,0,0,0,1.5-.5,2.551,2.551,0,0,0,.43-1.62C737.329,222.313,737.017,221.162,736.207,221.47Z" transform="translate(-734.458 -221.222)" fill="#fff"/>
          <path id="Path_1125" data-name="Path 1125" d="M735.508,225.013a1.233,1.233,0,0,1-.478-.1,1.7,1.7,0,0,1-.868-1.794,2.681,2.681,0,0,1,1.666-2.148h0a.8.8,0,0,1,.755.067,2.134,2.134,0,0,1,.649,1.572,2.7,2.7,0,0,1-.47,1.745A1.644,1.644,0,0,1,735.508,225.013Zm.459-3.671a2.279,2.279,0,0,0-1.416,1.827,1.323,1.323,0,0,0,.63,1.388,1.143,1.143,0,0,0,1.269-.434,2.323,2.323,0,0,0,.39-1.5,1.745,1.745,0,0,0-.475-1.257.405.405,0,0,0-.4-.027Z" transform="translate(-734.148 -220.912)" fill="#6319b8"/>
        </g>
        <g id="Group_12899" data-name="Group 12899" transform="translate(3.699 8.281)">
          <path id="Path_1126" data-name="Path 1126" d="M715.984,212.418a2.488,2.488,0,0,0-.435,2.481,1.492,1.492,0,0,0,1.405,1.045,1.347,1.347,0,0,0,1.095-1.149,2.537,2.537,0,0,0-.376-1.631C717.37,212.628,716.556,211.763,715.984,212.418Z" transform="translate(-715.196 -211.987)" fill="#fff"/>
          <path id="Path_1127" data-name="Path 1127" d="M716.539,215.835a1.727,1.727,0,0,1-1.482-1.176,2.689,2.689,0,0,1,.47-2.68h0a.8.8,0,0,1,.7-.3c.584.06,1.109.731,1.3,1.077a2.68,2.68,0,0,1,.4,1.759,1.536,1.536,0,0,1-1.268,1.311C716.622,215.832,716.58,215.835,716.539,215.835Zm-.392-3.767a.419.419,0,0,0-.324.168h0a2.288,2.288,0,0,0-.4,2.281,1.313,1.313,0,0,0,1.2.922,1.149,1.149,0,0,0,.921-.986,2.31,2.31,0,0,0-.353-1.5c-.226-.4-.655-.844-1-.88Zm-.472.039h0Z" transform="translate(-714.886 -211.676)" fill="#6319b8"/>
        </g>
        <g id="Group_12900" data-name="Group 12900" transform="translate(8.181 8.242)">
          <path id="Path_1128" data-name="Path 1128" d="M729.05,212.311a2.477,2.477,0,0,1,.452,2.473,1.508,1.508,0,0,1-1.4,1.067,1.332,1.332,0,0,1-1.1-1.132,2.552,2.552,0,0,1,.365-1.637C727.666,212.542,728.474,211.664,729.05,212.311Z" transform="translate(-726.779 -211.887)" fill="#fff"/>
          <path id="Path_1129" data-name="Path 1129" d="M727.883,215.74c-.035,0-.07,0-.106,0a1.521,1.521,0,0,1-1.279-1.293,2.7,2.7,0,0,1,.387-1.765c.194-.351.716-1.031,1.3-1.1a.8.8,0,0,1,.7.288h0a2.678,2.678,0,0,1,.489,2.673A1.736,1.736,0,0,1,727.883,215.74Zm.392-3.772a.4.4,0,0,0-.047,0c-.349.039-.776.491-1,.9a2.322,2.322,0,0,0-.343,1.508,1.142,1.142,0,0,0,.926.97,1.325,1.325,0,0,0,1.2-.942,2.278,2.278,0,0,0-.415-2.273h0A.416.416,0,0,0,728.275,211.968Z" transform="translate(-726.468 -211.576)" fill="#6319b8"/>
        </g>
        <g id="Group_12901" data-name="Group 12901" transform="translate(3.092 19.697)">
          <path id="Path_1130" data-name="Path 1130" d="M713.754,242.509a.065.065,0,0,1-.046-.019,1.37,1.37,0,0,1-.354-1.265.065.065,0,0,1,.127.031,1.238,1.238,0,0,0,.32,1.143.065.065,0,0,1,0,.092A.066.066,0,0,1,713.754,242.509Z" transform="translate(-713.318 -241.174)"/>
        </g>
      </g>
      <g id="Group_12957" data-name="Group 12957" transform="translate(126.218 88.041)">
        <g id="Group_12909" data-name="Group 12909" transform="translate(0 0)">
          <g id="Group_12903" data-name="Group 12903">
            <path id="Path_1131" data-name="Path 1131" d="M345.306,98.639l-.013,61.259a2.685,2.685,0,0,1-2.651,2.472H209.7a3.165,3.165,0,0,1-3.03-3.106l.2-60.975a2.822,2.822,0,0,1,2.651-2.63l132.653-.077A3.2,3.2,0,0,1,345.306,98.639Z" transform="translate(-206.478 -95.386)" fill="#fff"/>
            <path id="Path_1132" data-name="Path 1132" d="M342.332,162.256H209.394a3.367,3.367,0,0,1-3.226-3.3l.2-60.976a3.031,3.031,0,0,1,2.847-2.825l132.653-.077a3.378,3.378,0,0,1,3.321,3.253h0l-.013,61.258A2.87,2.87,0,0,1,342.332,162.256Zm-.461-66.788-132.652.077a2.612,2.612,0,0,0-2.455,2.434l-.2,60.976a2.98,2.98,0,0,0,2.835,2.909H342.332a2.5,2.5,0,0,0,2.455-2.276l.013-61.259A3.014,3.014,0,0,0,341.87,95.468ZM345,98.329h0Z" transform="translate(-206.168 -95.076)"/>
          </g>
          <g id="Group_12904" data-name="Group 12904" transform="translate(0.431 5.599)">
            <path id="Path_1133" data-name="Path 1133" d="M207.478,110.1a.2.2,0,1,1,0-.392l138.034-.163h0a.2.2,0,0,1,0,.392l-138.033.162Z" transform="translate(-207.282 -109.544)"/>
          </g>
          <g id="Group_12908" data-name="Group 12908" transform="translate(124.072 2.762)">
            <g id="Group_12905" data-name="Group 12905" transform="translate(9.218)">
              <path id="Path_1134" data-name="Path 1134" d="M551.186,102.222a.514.514,0,0,0-.513.232.462.462,0,0,0-.023.455.487.487,0,0,0,.411.249.478.478,0,0,0,.483-.438A.529.529,0,0,0,551.186,102.222Z" transform="translate(-550.601 -102.214)"/>
            </g>
            <g id="Group_12906" data-name="Group 12906" transform="translate(4.753)">
              <path id="Path_1135" data-name="Path 1135" d="M539.648,102.222a.515.515,0,0,0-.513.232.462.462,0,0,0-.023.455.488.488,0,0,0,.411.249.479.479,0,0,0,.483-.438A.53.53,0,0,0,539.648,102.222Z" transform="translate(-539.063 -102.214)"/>
            </g>
            <g id="Group_12907" data-name="Group 12907">
              <path id="Path_1136" data-name="Path 1136" d="M527.366,102.222a.515.515,0,0,0-.513.232.462.462,0,0,0-.023.455.487.487,0,0,0,.411.249.479.479,0,0,0,.483-.438A.53.53,0,0,0,527.366,102.222Z" transform="translate(-526.781 -102.214)"/>
            </g>
          </g>
        </g>
        <g id="Group_12913" data-name="Group 12913" transform="translate(66.182 53.101)">
          <g id="Group_12910" data-name="Group 12910">
            <path id="Path_1137" data-name="Path 1137" d="M389.07,232.5h0l-11.817-.078a.065.065,0,0,1,0-.131h0l11.816.078a.065.065,0,0,1,0,.131Z" transform="translate(-377.188 -232.294)"/>
          </g>
          <g id="Group_12911" data-name="Group 12911" transform="translate(1.155 2.352)">
            <path id="Path_1138" data-name="Path 1138" d="M389.744,238.579h0l-9.506-.077a.065.065,0,0,1,0-.131h0l9.506.077a.065.065,0,0,1,0,.131Z" transform="translate(-380.173 -238.371)"/>
          </g>
          <g id="Group_12912" data-name="Group 12912" transform="translate(0 4.703)">
            <path id="Path_1139" data-name="Path 1139" d="M389.07,244.655h0l-11.817-.077a.065.065,0,0,1,0-.131h0l11.816.078a.065.065,0,1,1,0,.13Z" transform="translate(-377.188 -244.447)"/>
          </g>
        </g>
        <g id="Group_12917" data-name="Group 12917" transform="translate(24.312 53.101)">
          <g id="Group_12914" data-name="Group 12914">
            <path id="Path_1140" data-name="Path 1140" d="M280.873,232.5h0l-11.816-.078a.065.065,0,0,1,0-.131h0l11.816.078a.065.065,0,0,1,0,.131Z" transform="translate(-268.991 -232.294)"/>
          </g>
          <g id="Group_12915" data-name="Group 12915" transform="translate(1.155 2.352)">
            <path id="Path_1141" data-name="Path 1141" d="M281.547,238.579h0l-9.506-.077a.065.065,0,0,1-.065-.066.07.07,0,0,1,.066-.065l9.506.077a.065.065,0,0,1,0,.131Z" transform="translate(-271.976 -238.371)"/>
          </g>
          <g id="Group_12916" data-name="Group 12916" transform="translate(0 4.703)">
            <path id="Path_1142" data-name="Path 1142" d="M280.873,244.655h0l-11.816-.077a.065.065,0,0,1,0-.131h0l11.816.078a.065.065,0,0,1,0,.13Z" transform="translate(-268.991 -244.447)"/>
          </g>
        </g>
        <g id="Group_12921" data-name="Group 12921" transform="translate(108.053 53.101)">
          <g id="Group_12918" data-name="Group 12918">
            <path id="Path_1143" data-name="Path 1143" d="M497.267,232.5h0l-11.817-.078a.065.065,0,0,1,0-.131h0l11.817.078a.065.065,0,0,1,0,.131Z" transform="translate(-485.385 -232.294)"/>
          </g>
          <g id="Group_12919" data-name="Group 12919" transform="translate(1.156 2.352)">
            <path id="Path_1144" data-name="Path 1144" d="M497.942,238.579h0l-9.506-.077a.065.065,0,0,1,0-.131h0l9.506.077a.065.065,0,0,1,0,.131Z" transform="translate(-488.371 -238.371)"/>
          </g>
          <g id="Group_12920" data-name="Group 12920" transform="translate(0 4.703)">
            <path id="Path_1145" data-name="Path 1145" d="M497.267,244.655h0l-11.817-.077a.065.065,0,0,1,0-.131h0l11.817.078a.065.065,0,0,1,0,.13Z" transform="translate(-485.385 -244.447)"/>
          </g>
        </g>
        <g id="Group_12935" data-name="Group 12935" transform="translate(44.759 15.102)">
          <g id="Group_12924" data-name="Group 12924" transform="translate(4.996)">
            <g id="Group_12922" data-name="Group 12922">
              <path id="Path_1146" data-name="Path 1146" d="M372.106,165.315h-.012a.2.2,0,0,1-.179-.151c-.231-.991-1.5-2.406-3.684-4.091-.957-.74-1.985-1.447-2.893-2.07-.479-.33-.932-.641-1.308-.912a.2.2,0,1,1,.229-.318c.372.269.823.579,1.3.907.911.626,1.945,1.336,2.911,2.083a12.392,12.392,0,0,1,3.644,3.8,5.779,5.779,0,0,1,2.594-2.817c.406-.277.866-.592,1.405-.995.162-.121.336-.246.52-.377,2.6-1.857,6.945-4.961,7.47-20.57-3.49-.881-8.314-2.5-11.889-5.264-3.886,2.77-9.492,4.511-11.9,5.173.012.168.027.383.042.62.054.815.128,1.932.185,2.209a.2.2,0,1,1-.384.079c-.062-.3-.134-1.389-.192-2.261-.021-.319-.039-.6-.053-.777a.2.2,0,0,1,.144-.2c2.316-.628,8.125-2.4,12.048-5.241a.2.2,0,0,1,.236,0c3.583,2.818,8.51,4.449,12.011,5.321a.2.2,0,0,1,.148.2c-.223,6.99-1.211,12.149-3.021,15.772a13.038,13.038,0,0,1-4.618,5.263c-.181.13-.353.252-.513.372-.546.408-1.01.725-1.419,1a5.334,5.334,0,0,0-2.64,3.116A.2.2,0,0,1,372.106,165.315Z" transform="translate(-359.913 -134.101)"/>
            </g>
            <g id="Group_12923" data-name="Group 12923" transform="translate(2.211 2.569)">
              <path id="Path_1147" data-name="Path 1147" d="M375.664,165.812h0a.066.066,0,0,1-.053-.032,20.472,20.472,0,0,0-4.169-3.59.066.066,0,0,1-.02-.09.065.065,0,0,1,.09-.02,21.76,21.76,0,0,1,4.157,3.553,21.75,21.75,0,0,1,3.2-2.695c5.013-3.746,6.244-9.134,6.751-17.759-4.365-1.094-7.59-2.5-9.853-4.292-2.309,1.724-6.328,2.9-8.734,3.612-.5.148-.943.277-1.269.383l.008.07c.034.288.079.683.079.793a.065.065,0,1,1-.13,0c0-.1-.047-.509-.079-.778l-.015-.124a.065.065,0,0,1,.044-.069c.332-.11.791-.245,1.323-.4,2.412-.709,6.449-1.895,8.733-3.621a.066.066,0,0,1,.08,0c2.26,1.8,5.5,3.214,9.9,4.312a.065.065,0,0,1,.049.067c-.507,8.7-1.742,14.126-6.806,17.91a19.621,19.621,0,0,0-3.231,2.741A.065.065,0,0,1,375.664,165.812Z" transform="translate(-365.628 -140.74)"/>
            </g>
          </g>
          <g id="Group_12934" data-name="Group 12934" transform="translate(0 9.318)">
            <g id="Group_12925" data-name="Group 12925" transform="translate(13.045)">
              <path id="Path_1148" data-name="Path 1148" d="M383.62,158.688a2.162,2.162,0,0,0-2.373,1.718,2.224,2.224,0,0,0,1.3,2.358,2.3,2.3,0,0,0,3.3-1.862A2.1,2.1,0,0,0,383.62,158.688Z" transform="translate(-381.023 -158.492)" fill="#fff"/>
              <path id="Path_1149" data-name="Path 1149" d="M383.242,162.863a2.682,2.682,0,0,1-1.085-.231,2.424,2.424,0,0,1-1.414-2.57,2.355,2.355,0,0,1,2.567-1.882,2.291,2.291,0,0,1,2.423,2.41,2.192,2.192,0,0,1-1.05,1.845A2.633,2.633,0,0,1,383.242,162.863Zm.067-4.29a1.964,1.964,0,0,0-2.18,1.554,2.028,2.028,0,0,0,1.187,2.147,2.258,2.258,0,0,0,2.153-.167,1.807,1.807,0,0,0,.872-1.516A1.9,1.9,0,0,0,383.309,158.573Z" transform="translate(-380.712 -158.181)"/>
            </g>
            <g id="Group_12926" data-name="Group 12926" transform="translate(11.841 4.485)">
              <path id="Path_1150" data-name="Path 1150" d="M377.6,177.887a38.386,38.386,0,0,1,.26-4.17,5.1,5.1,0,0,1,2.48-3.7,2.847,2.847,0,0,1,3.578,1.138,8.224,8.224,0,0,1,1.024,3.966c.058.919.072,1.842.086,2.764Z" transform="translate(-377.601 -169.771)"/>
            </g>
            <g id="Group_12927" data-name="Group 12927" transform="translate(1.33 0.976)">
              <path id="Path_1151" data-name="Path 1151" d="M353.228,161.211a1.951,1.951,0,0,0-1.02,3.749,2.185,2.185,0,0,0,3.135-1.713A1.963,1.963,0,0,0,353.228,161.211Z" transform="translate(-350.75 -161.015)" fill="#fff"/>
              <path id="Path_1152" data-name="Path 1152" d="M352.855,165.043a2.626,2.626,0,0,1-1.035-.214,2.146,2.146,0,0,1,1.1-4.126,2.158,2.158,0,0,1,2.311,2.233,2.017,2.017,0,0,1-.962,1.684A2.559,2.559,0,0,1,352.855,165.043Zm.062-3.947a1.87,1.87,0,0,0-2.062,1.418,1.838,1.838,0,0,0,1.119,1.956,2.221,2.221,0,0,0,2.077-.176,1.633,1.633,0,0,0,.786-1.357A1.771,1.771,0,0,0,352.917,161.1Z" transform="translate(-350.439 -160.704)"/>
            </g>
            <g id="Group_12928" data-name="Group 12928" transform="translate(0 4.919)">
              <path id="Path_1153" data-name="Path 1153" d="M347.509,178.669a32.361,32.361,0,0,1,.247-3.731,4.568,4.568,0,0,1,2.356-3.308,2.8,2.8,0,0,1,3.4,1.018,7.023,7.023,0,0,1,.973,3.549c.055.822.068,1.648.081,2.473Z" transform="translate(-347.313 -171.207)" fill="#fff"/>
              <path id="Path_1154" data-name="Path 1154" d="M354.256,178.55H347.2a.2.2,0,0,1-.2-.213c.04-.461.05-.938.059-1.4a13.031,13.031,0,0,1,.192-2.355,4.733,4.733,0,0,1,2.47-3.448,2.981,2.981,0,0,1,3.638,1.084,7.249,7.249,0,0,1,1.008,3.649c.055.827.069,1.669.082,2.482a.2.2,0,0,1-.2.2Zm-6.846-.392h6.647c-.012-.747-.027-1.513-.077-2.264a6.907,6.907,0,0,0-.937-3.448,2.593,2.593,0,0,0-3.161-.952,4.4,4.4,0,0,0-2.243,3.168,12.788,12.788,0,0,0-.184,2.284C347.446,177.344,347.437,177.753,347.41,178.158Z" transform="translate(-347.002 -170.892)"/>
            </g>
            <g id="Group_12929" data-name="Group 12929" transform="translate(7.888 3.957)">
              <path id="Path_1155" data-name="Path 1155" d="M369.758,168.913a1.683,1.683,0,0,0-1.845,1.346,1.745,1.745,0,0,0,1.01,1.847,1.785,1.785,0,0,0,2.565-1.459A1.635,1.635,0,0,0,369.758,168.913Z" transform="translate(-367.696 -168.717)" fill="#fff"/>
              <path id="Path_1156" data-name="Path 1156" d="M369.4,172.159a2.113,2.113,0,0,1-.862-.185,1.945,1.945,0,0,1-1.124-2.058,1.874,1.874,0,0,1,2.038-1.51,1.828,1.828,0,0,1,1.926,1.93,1.784,1.784,0,0,1-.844,1.485A2.082,2.082,0,0,1,369.4,172.159Zm.052-3.36a1.488,1.488,0,0,0-1.652,1.181,1.549,1.549,0,0,0,.9,1.636,1.7,1.7,0,0,0,1.623-.123,1.376,1.376,0,0,0,.665-1.157A1.443,1.443,0,0,0,369.447,168.8Z" transform="translate(-367.385 -168.407)"/>
            </g>
            <g id="Group_12930" data-name="Group 12930" transform="translate(6.699 7.316)">
              <path id="Path_1157" data-name="Path 1157" d="M364.821,182.463a17.275,17.275,0,0,1,.209-2.5,3.214,3.214,0,0,1,1.995-2.218,2.746,2.746,0,0,1,2.878.683,4,4,0,0,1,.823,2.379c.047.551.058,1.1.069,1.658Z" transform="translate(-364.625 -177.397)" fill="#6319b8"/>
              <path id="Path_1158" data-name="Path 1158" d="M370.484,182.347H364.51a.2.2,0,0,1-.2-.217c.033-.305.042-.623.05-.93a7.047,7.047,0,0,1,.165-1.6,3.4,3.4,0,0,1,2.12-2.354,2.935,2.935,0,0,1,3.088.737,4.2,4.2,0,0,1,.873,2.493c.047.559.058,1.124.069,1.67a.2.2,0,0,1-.2.2Zm-5.759-.392h5.559c-.01-.477-.024-.966-.064-1.445a3.846,3.846,0,0,0-.774-2.265,2.534,2.534,0,0,0-2.667-.628,3,3,0,0,0-1.869,2.082,6.652,6.652,0,0,0-.152,1.511C364.75,181.454,364.744,181.7,364.725,181.955Z" transform="translate(-364.314 -177.085)"/>
            </g>
            <g id="Group_12931" data-name="Group 12931" transform="translate(1.198 9.793)">
              <path id="Path_1159" data-name="Path 1159" d="M350.19,185.465a.065.065,0,0,1-.065-.061,11.026,11.026,0,0,1,.029-1.857.065.065,0,1,1,.13.013,10.88,10.88,0,0,0-.029,1.835.065.065,0,0,1-.061.07Z" transform="translate(-350.099 -183.488)"/>
            </g>
            <g id="Group_12932" data-name="Group 12932" transform="translate(2.15 10.859)">
              <path id="Path_1160" data-name="Path 1160" d="M352.644,187.153a.065.065,0,0,1-.065-.064l-.022-.78a.066.066,0,0,1,.063-.067.067.067,0,0,1,.067.063l.022.78a.066.066,0,0,1-.063.067Z" transform="translate(-352.557 -186.242)"/>
            </g>
            <g id="Group_12933" data-name="Group 12933" transform="translate(18.141 9.897)">
              <path id="Path_1161" data-name="Path 1161" d="M394,185.525a.065.065,0,0,1-.065-.063l-.058-1.638a.065.065,0,1,1,.13,0l.058,1.638a.066.066,0,0,1-.063.068Z" transform="translate(-393.88 -183.757)"/>
            </g>
          </g>
        </g>
        <g id="Group_12942" data-name="Group 12942" transform="translate(82.759 15.102)">
          <g id="Group_12938" data-name="Group 12938" transform="translate(0.216)">
            <g id="Group_12936" data-name="Group 12936">
              <path id="Path_1162" data-name="Path 1162" d="M479.626,165.315h-.008a.2.2,0,0,1-.181-.144c-.5-1.813-1.8-2.757-3.168-3.755-.293-.213-.595-.433-.892-.663a15.17,15.17,0,0,0-1.661-1.188.2.2,0,0,1,.188-.344,15.372,15.372,0,0,1,1.713,1.222c.293.227.593.445.883.656a7.824,7.824,0,0,1,3.144,3.446,5.782,5.782,0,0,1,2.586-2.8c.406-.277.866-.592,1.405-.995.162-.121.336-.246.52-.377,2.6-1.857,6.945-4.961,7.47-20.57-3.49-.881-8.314-2.5-11.889-5.264-3.886,2.77-9.492,4.511-11.9,5.173.012.167.026.38.042.615.054.817.128,1.936.185,2.213a.2.2,0,1,1-.384.079c-.062-.3-.134-1.392-.192-2.266-.021-.317-.04-.595-.053-.772a.2.2,0,0,1,.144-.2c2.315-.628,8.125-2.4,12.048-5.241a.2.2,0,0,1,.236,0c3.584,2.818,8.51,4.449,12.011,5.321a.2.2,0,0,1,.149.2c-.223,6.99-1.21,12.149-3.021,15.772a13.035,13.035,0,0,1-4.619,5.263c-.181.13-.353.252-.513.372-.545.408-1.009.725-1.419,1a5.332,5.332,0,0,0-2.64,3.116A.2.2,0,0,1,479.626,165.315Z" transform="translate(-467.433 -134.101)"/>
            </g>
            <g id="Group_12937" data-name="Group 12937" transform="translate(2.211 2.569)">
              <path id="Path_1163" data-name="Path 1163" d="M483.184,165.812a.052.052,0,0,1-.054-.028,12.616,12.616,0,0,0-2.3-2.01.065.065,0,1,1,.074-.108,13.363,13.363,0,0,1,2.28,1.971,21.635,21.635,0,0,1,3.206-2.7c5.013-3.746,6.244-9.134,6.751-17.759-4.365-1.094-7.59-2.5-9.853-4.292-2.309,1.724-6.328,2.9-8.734,3.612-.5.148-.944.277-1.269.383l.008.072c.034.287.079.681.079.791a.065.065,0,1,1-.13,0c0-.1-.047-.508-.079-.776l-.015-.126a.065.065,0,0,1,.044-.069c.332-.11.791-.245,1.324-.4,2.412-.709,6.449-1.895,8.732-3.621a.066.066,0,0,1,.08,0c2.26,1.8,5.5,3.214,9.9,4.312a.065.065,0,0,1,.049.067c-.507,8.7-1.742,14.126-6.806,17.91a19.606,19.606,0,0,0-3.231,2.741A.066.066,0,0,1,483.184,165.812Z" transform="translate(-473.148 -140.74)"/>
            </g>
          </g>
          <g id="Group_12941" data-name="Group 12941" transform="translate(0 7.894)">
            <g id="Group_12939" data-name="Group 12939">
              <ellipse id="Ellipse_25" data-name="Ellipse 25" cx="7.668" cy="7.517" rx="7.668" ry="7.517" transform="translate(0.196 0.196)" fill="#fff"/>
              <path id="Path_1164" data-name="Path 1164" d="M474.738,169.926a7.714,7.714,0,1,1,7.864-7.713A7.8,7.8,0,0,1,474.738,169.926Zm0-15.034a7.323,7.323,0,1,0,7.472,7.321A7.406,7.406,0,0,0,474.738,154.892Z" transform="translate(-466.874 -154.5)"/>
            </g>
            <g id="Group_12940" data-name="Group 12940" transform="translate(3.861 3.805)">
              <path id="Path_1165" data-name="Path 1165" d="M480.062,167.5l-.16-2.556,2.236-.1.155,2.614,2.547-.035.133,2.04-2.571.077.136,2.6-2.1.135-.213-2.567-2.758.12-.113-2.156Z" transform="translate(-477.163 -164.644)" fill="#6319b8"/>
              <path id="Path_1166" data-name="Path 1166" d="M480.132,172.152a.2.2,0,0,1-.2-.18l-.2-2.379-2.57.111a.2.2,0,0,1-.2-.185l-.113-2.156a.2.2,0,0,1,.183-.206l2.508-.156-.148-2.36a.2.2,0,0,1,.187-.208l2.236-.1a.191.191,0,0,1,.2.184l.144,2.427,2.359-.033a.2.2,0,0,1,.2.183l.133,2.041a.2.2,0,0,1-.19.209l-2.37.071.126,2.4a.2.2,0,0,1-.183.206l-2.1.135Zm-.212-2.958a.2.2,0,0,1,.2.18l.2,2.375,1.711-.11-.126-2.4a.2.2,0,0,1,.19-.206l2.368-.071-.108-1.652-2.361.032h0a.2.2,0,0,1-.2-.184l-.144-2.421-1.844.082.147,2.356a.2.2,0,0,1-.048.142.2.2,0,0,1-.135.066l-2.51.157.093,1.768,2.564-.111Z" transform="translate(-476.852 -164.333)"/>
            </g>
          </g>
        </g>
        <g id="Group_12956" data-name="Group 12956" transform="translate(5.759 15.102)">
          <g id="Group_12943" data-name="Group 12943" transform="translate(1.032 15.792)">
            <path id="Path_1167" data-name="Path 1167" d="M241.555,181.967l-2.229,0a.419.419,0,0,1-.38-.419l.021-6.167a.493.493,0,0,1,.48-.477l2.186.026a.439.439,0,0,1,.4.419l-.008,6.122A.5.5,0,0,1,241.555,181.967Z" transform="translate(-238.946 -174.908)"/>
          </g>
          <g id="Group_12944" data-name="Group 12944" transform="translate(17.75 15.792)">
            <path id="Path_1168" data-name="Path 1168" d="M284.755,181.967l-2.229,0a.419.419,0,0,1-.38-.419l.021-6.167a.493.493,0,0,1,.48-.477l2.186.026a.439.439,0,0,1,.4.419l-.008,6.122A.5.5,0,0,1,284.755,181.967Z" transform="translate(-282.146 -174.908)"/>
          </g>
          <g id="Group_12945" data-name="Group 12945" transform="translate(0 6.527)">
            <path id="Path_1169" data-name="Path 1169" d="M257.986,164.166c.037-1.9.22-3.684.175-5.583a1.076,1.076,0,0,0-.092-.5,10.422,10.422,0,0,0-2.323-1.318,40.03,40.03,0,0,0-2.017-4.658,1.286,1.286,0,0,0-.986-.62c-3.128-.02-6.323-.013-9.519,0a1.758,1.758,0,0,0-1.015.213,2.288,2.288,0,0,0-.659.932c-.646,1.334-1.293,2.668-1.975,4.1l-1.89.963a1.571,1.571,0,0,0-.505.35,2.012,2.012,0,0,0-.334,1.186,33.222,33.222,0,0,0,.064,4.838c-.058.962,2.174.839,3.271.842l16.672.045a1.545,1.545,0,0,0,.782-.137A.783.783,0,0,0,257.986,164.166Z" transform="translate(-236.59 -151.277)" fill="#fff"/>
            <path id="Path_1170" data-name="Path 1170" d="M256.592,164.843h-.05L239.87,164.8l-.353,0c-1.019.008-2.414.019-2.917-.512a.694.694,0,0,1-.2-.526,33.168,33.168,0,0,1-.063-4.853,2.174,2.174,0,0,1,.381-1.3,1.74,1.74,0,0,1,.565-.4l1.83-.933c.673-1.413,1.32-2.75,1.947-4.044a2.47,2.47,0,0,1,.725-1.008,1.93,1.93,0,0,1,1.124-.247c3.077-.013,6.36-.022,9.521,0a1.459,1.459,0,0,1,1.146.7,39.517,39.517,0,0,1,2.013,4.624,9.442,9.442,0,0,1,2.336,1.368,1.256,1.256,0,0,1,.117.591c.028,1.16-.03,2.3-.086,3.4-.036.713-.074,1.45-.089,2.194l-.2,0,.2,0a.976.976,0,0,1-.45.822A1.641,1.641,0,0,1,256.592,164.843Zm-16.763-.436h.041l16.672.044a1.387,1.387,0,0,0,.685-.111.591.591,0,0,0,.252-.489c.015-.75.053-1.49.089-2.206.056-1.093.113-2.223.086-3.369a.946.946,0,0,0-.067-.408,11.857,11.857,0,0,0-2.228-1.234.2.2,0,0,1-.109-.118,40.008,40.008,0,0,0-1.992-4.609,1.1,1.1,0,0,0-.826-.536c-3.16-.021-6.442-.012-9.517,0a1.611,1.611,0,0,0-.906.179,2.159,2.159,0,0,0-.593.855c-.635,1.311-1.292,2.667-1.974,4.1a.2.2,0,0,1-.088.09l-1.889.963a1.416,1.416,0,0,0-.446.3,1.868,1.868,0,0,0-.287,1.07,32.9,32.9,0,0,0,.063,4.813.2.2,0,0,1,0,.026.309.309,0,0,0,.089.246c.386.407,1.791.4,2.63.39Z" transform="translate(-236.279 -150.967)"/>
          </g>
          <g id="Group_12946" data-name="Group 12946" transform="translate(4.752 8.116)">
            <path id="Path_1171" data-name="Path 1171" d="M249.066,159.368c.572-1.246,1.308-3.429,1.832-3.682.338-.163,4.794-.093,7.228-.1a1.8,1.8,0,0,1,1.443.432c.185.216,1.587,3.259,1.587,3.259Z" transform="translate(-248.87 -155.382)" fill="#6319b8"/>
            <path id="Path_1172" data-name="Path 1172" d="M248.755,159.255a.2.2,0,0,1-.178-.277c.156-.34.323-.746.5-1.176.609-1.484,1.008-2.4,1.426-2.6a33.618,33.618,0,0,1,5.2-.125c.768,0,1.505.005,2.115,0a1.977,1.977,0,0,1,1.593.5c.193.225,1.38,2.792,1.616,3.3a.2.2,0,0,1-.176.278l-12.091.093Zm5.25-3.791a29.322,29.322,0,0,0-3.338.092,7.953,7.953,0,0,0-1.229,2.394c-.132.322-.259.631-.38.911l11.482-.089c-.536-1.156-1.307-2.783-1.432-2.939a1.625,1.625,0,0,0-1.293-.363c-.611,0-1.349,0-2.118,0C255.166,155.466,254.582,155.464,254.005,155.464Z" transform="translate(-248.559 -155.072)"/>
          </g>
          <g id="Group_12947" data-name="Group 12947" transform="translate(6.524 17.011)">
            <path id="Path_1173" data-name="Path 1173" d="M255.957,178.237q-1.381,0-2.755-.01a.065.065,0,0,1,0-.131h0c2.889.022,5.816.009,8.7-.037h0a.065.065,0,0,1,0,.131C259.934,178.221,257.943,178.237,255.957,178.237Z" transform="translate(-253.137 -178.059)"/>
          </g>
          <g id="Group_12948" data-name="Group 12948" transform="translate(6.524 15.377)">
            <path id="Path_1174" data-name="Path 1174" d="M255.957,174.013q-1.381,0-2.755-.01a.065.065,0,0,1,0-.131h0c2.889.021,5.816.009,8.7-.037a.069.069,0,0,1,.067.064.066.066,0,0,1-.064.067C259.934,174,257.943,174.013,255.957,174.013Z" transform="translate(-253.137 -173.836)"/>
          </g>
          <g id="Group_12949" data-name="Group 12949" transform="translate(18.716 10.756)">
            <path id="Path_1175" data-name="Path 1175" d="M284.839,162.46a.2.2,0,0,1-.038-.388,9.634,9.634,0,0,1,2.267-.168.2.2,0,0,1,.187.2.194.194,0,0,1-.2.187,9.263,9.263,0,0,0-2.175.161A.209.209,0,0,1,284.839,162.46Z" transform="translate(-284.643 -161.894)"/>
          </g>
          <g id="Group_12950" data-name="Group 12950" transform="translate(0.616 10.733)">
            <path id="Path_1176" data-name="Path 1176" d="M240.5,162.484a.2.2,0,0,1-.074-.014,6.83,6.83,0,0,0-2.336-.221.2.2,0,1,1-.044-.389,7.112,7.112,0,0,1,2.528.247.2.2,0,0,1-.074.378Z" transform="translate(-237.87 -161.836)"/>
          </g>
          <g id="Group_12953" data-name="Group 12953" transform="translate(9.23)">
            <g id="Group_12951" data-name="Group 12951">
              <path id="Path_1177" data-name="Path 1177" d="M269.171,165.315h-.005a.2.2,0,0,1-.181-.135,6.831,6.831,0,0,0-2.6-3.452c-1.546-.9-5.059-3.329-6.211-4.874a.2.2,0,0,1,.314-.234c1.069,1.433,4.488,3.833,6.1,4.774l.014.009a7.3,7.3,0,0,1,2.584,3.178,5.868,5.868,0,0,1,2.71-2.834c.423-.277.9-.592,1.464-.995.169-.122.35-.246.541-.377,2.708-1.857,7.235-4.963,7.783-20.567-3.634-.88-8.66-2.5-12.384-5.262-1.277,1-5.7,3.559-6.763,4.161a.2.2,0,1,1-.193-.341c1.1-.619,5.76-3.316,6.824-4.218a.2.2,0,0,1,.245-.007c3.735,2.82,8.869,4.451,12.517,5.323a.2.2,0,0,1,.15.2c-.232,6.991-1.262,12.151-3.148,15.775a13.245,13.245,0,0,1-4.811,5.262c-.188.129-.367.252-.534.372-.568.408-1.051.725-1.478,1a5.4,5.4,0,0,0-2.752,3.116A.2.2,0,0,1,269.171,165.315Z" transform="translate(-260.13 -134.101)"/>
            </g>
            <g id="Group_12952" data-name="Group 12952" transform="translate(3.289 2.569)">
              <path id="Path_1178" data-name="Path 1178" d="M274.366,165.523h0a.066.066,0,0,1-.049-.027,19.087,19.087,0,0,0-2.4-1.773,25.2,25.2,0,0,1-3.263-2.44.065.065,0,1,1,.1-.085,25.394,25.394,0,0,0,3.238,2.417,22.5,22.5,0,0,1,2.386,1.744,10.237,10.237,0,0,1,2.406-1.793c.293-.182.626-.388,1.01-.631,5.221-3.3,6.468-8.569,7.03-17.755-4.546-1.094-7.9-2.5-10.262-4.29a15.016,15.016,0,0,1-2.544,1.542c-.226.118-.4.211-.506.27a.065.065,0,1,1-.065-.113c.1-.06.283-.154.51-.273a14.184,14.184,0,0,0,2.554-1.558.065.065,0,0,1,.085-.005c2.355,1.8,5.727,3.215,10.311,4.313a.065.065,0,0,1,.05.067,42.5,42.5,0,0,1-1.722,10.983,12.692,12.692,0,0,1-5.371,6.93c-.385.243-.717.449-1.011.631a9.963,9.963,0,0,0-2.43,1.825A.065.065,0,0,1,274.366,165.523Z" transform="translate(-268.63 -140.74)"/>
            </g>
          </g>
          <g id="Group_12954" data-name="Group 12954" transform="translate(1.594 14.945)">
            <path id="Path_1179" data-name="Path 1179" d="M240.595,173.183a.2.2,0,0,1-.009-.392c.866-.038,1.741-.062,2.6-.072a.2.2,0,0,1,.2.194.2.2,0,0,1-.194.2c-.857.009-1.728.033-2.59.071Z" transform="translate(-240.399 -172.72)"/>
          </g>
          <g id="Group_12955" data-name="Group 12955" transform="translate(17.418 14.909)">
            <path id="Path_1180" data-name="Path 1180" d="M281.485,173.091a.2.2,0,0,1-.009-.392c.86-.038,1.736-.062,2.6-.072h0a.2.2,0,0,1,0,.392c-.862.01-1.734.034-2.59.071Z" transform="translate(-281.289 -172.628)"/>
          </g>
        </g>
      </g>
      <g id="Group_12986" data-name="Group 12986" transform="translate(196.323 90.167)">
        <g id="Group_12958" data-name="Group 12958" transform="translate(60.03 27.952)">
          <path id="Path_1181" data-name="Path 1181" d="M600.514,171.713a8.746,8.746,0,0,0,5.471,8.385c1.835.64,3.846.549,5.726,1.04s3.8,1.906,3.809,3.849c.008,1.291-.724,4.218,3.14,5.933,3.188,1.415,2.426,9.069-7.446,12.288-3.025.986-1.075-1.495-4.22-1.978a14.242,14.242,0,0,1-8.064-4.532,25.893,25.893,0,0,1-4.839-8.026c-1.36-3.352-2.311-7.056-1.47-10.574S596.564,171.4,600.514,171.713Z" transform="translate(-592.304 -171.692)"/>
        </g>
        <g id="Group_12959" data-name="Group 12959" transform="translate(46.101 19.823)">
          <path id="Path_1182" data-name="Path 1182" d="M559.148,150.688c1.04,5.07,2.045,10.526-.031,15.266-.675,1.541-1.656,2.943-2.21,4.532a14.132,14.132,0,0,0-.5,5.931c.341,3.764,1.471,7.626,4.118,10.324s7.075,3.874,10.341,1.971c2.865-1.67,4.173-5.258,3.993-8.569s-1.593-6.419-3.084-9.382A116.643,116.643,0,0,0,559.148,150.688Z" transform="translate(-556.31 -150.688)"/>
        </g>
        <g id="Group_12960" data-name="Group 12960" transform="translate(50.564 36.564)">
          <path id="Path_1183" data-name="Path 1183" d="M573.86,202.244a53.878,53.878,0,0,0-.349-6.237,12.086,12.086,0,0,1,3.473-1.121,2.03,2.03,0,0,1,1.568.206c.261.2,1.5-.886,1.625-.585.88,2.063.955,5,1.835,7.067.068.159,3.15-.127,3.219.033a26.675,26.675,0,0,1-.167,6.407c-11.28,7.5-16.713-3.226-16.713-3.226A34.625,34.625,0,0,1,573.86,202.244Z" transform="translate(-568.154 -194.258)" fill="#fff"/>
          <path id="Path_1184" data-name="Path 1184" d="M577.16,210.562a9.356,9.356,0,0,1-2.392-.308c-4.586-1.208-6.88-5.645-6.9-5.689a.2.2,0,0,1,.072-.256,35.048,35.048,0,0,1,5.421-2.513,29.529,29.529,0,0,0-.192-4.153c-.061-.616-.125-1.253-.161-1.936a.2.2,0,0,1,.108-.186,12.21,12.21,0,0,1,3.529-1.139,2.237,2.237,0,0,1,1.7.229,2.789,2.789,0,0,0,.651-.32c.432-.253.687-.394.885-.328a.276.276,0,0,1,.169.156,18.066,18.066,0,0,1,.93,3.573,18.388,18.388,0,0,0,.872,3.415c.226.026.927,0,1.451-.024,1.618-.065,1.723-.046,1.8.135a17.252,17.252,0,0,1,.119,3.486c-.1,2.99-.281,3.11-.358,3.161A14.07,14.07,0,0,1,577.16,210.562Zm-8.856-6.013a11.568,11.568,0,0,0,6.568,5.328c2.964.78,6.239,0,9.733-2.311a30.784,30.784,0,0,0,.16-6.115c-.235-.024-.928,0-1.449.024-1.613.065-1.717.046-1.794-.135a18.037,18.037,0,0,1-.93-3.574,18.4,18.4,0,0,0-.872-3.415,3.963,3.963,0,0,0-.529.279c-.467.273-.835.489-1.07.306a1.88,1.88,0,0,0-1.416-.166,11.828,11.828,0,0,0-3.3,1.046c.037.623.093,1.19.153,1.789a29.669,29.669,0,0,1,.189,4.336.2.2,0,0,1-.128.177A36.6,36.6,0,0,0,568.3,204.549Zm5.247-2.616h0Z" transform="translate(-567.844 -193.947)"/>
        </g>
        <g id="Group_12961" data-name="Group 12961" transform="translate(47.556 15.733)">
          <path id="Path_1185" data-name="Path 1185" d="M560.6,145.763c.332,2.5.837,5.128.19,7.62-.353,1.359-.32,8.267,5.223,10.234a10.753,10.753,0,0,0,9.267-1,9.973,9.973,0,0,0,4.021-8.891,2.572,2.572,0,0,0,3.375-2.187,2.087,2.087,0,0,0-1.972-1.921,1.871,1.871,0,0,0-1.483.505,23.131,23.131,0,0,1-.625-5.668c-1.918-2.112-4.991-3.191-8.066-3.652a11.393,11.393,0,0,0-3.092-.117C564.485,141.052,560.257,143.192,560.6,145.763Z" transform="translate(-560.382 -140.428)" fill="#fff"/>
          <path id="Path_1186" data-name="Path 1186" d="M569.292,164.129a10.912,10.912,0,0,1-3.657-.638c-5.539-1.965-5.779-8.807-5.347-10.468a17.05,17.05,0,0,0-.068-6.626c-.043-.308-.086-.614-.127-.919h0a2.835,2.835,0,0,1,.668-2.134c1.317-1.706,4.249-2.9,6.34-3.165a11.709,11.709,0,0,1,3.145.118c2.54.38,6.021,1.334,8.182,3.714a.2.2,0,0,1,.051.135,22.692,22.692,0,0,0,.555,5.328,1.984,1.984,0,0,1,1.347-.365,2.019,2.019,0,0,1,1.464.615,2.185,2.185,0,0,1,.713,1.5,2.422,2.422,0,0,1-1.01,1.9,3.012,3.012,0,0,1-2.335.536,10.133,10.133,0,0,1-4.145,8.806A11.09,11.09,0,0,1,569.292,164.129Zm-8.811-18.7c.04.3.083.609.126.916a17.337,17.337,0,0,1,.06,6.779c-.243.935-.548,8,5.1,10a10.5,10.5,0,0,0,9.1-.984,9.821,9.821,0,0,0,3.929-8.7.2.2,0,0,1,.066-.173.194.194,0,0,1,.181-.041,2.632,2.632,0,0,0,2.273-.409,2.033,2.033,0,0,0,.853-1.592,1.784,1.784,0,0,0-.593-1.217,1.626,1.626,0,0,0-1.173-.505,1.688,1.688,0,0,0-1.373.465.2.2,0,0,1-.31-.112,23.316,23.316,0,0,1-.632-5.637c-2.087-2.253-5.441-3.165-7.9-3.533a11.35,11.35,0,0,0-3.039-.117c-2.012.251-4.826,1.394-6.078,3.015a2.459,2.459,0,0,0-.59,1.843Z" transform="translate(-560.071 -140.118)"/>
        </g>
        <g id="Group_12962" data-name="Group 12962" transform="translate(56.202 23.288)">
          <path id="Path_1187" data-name="Path 1187" d="M586.092,167.534a3.842,3.842,0,0,1-3.643-3.488,4.141,4.141,0,0,1,.678-2.9,3.4,3.4,0,0,1,2.373-1.481,3.786,3.786,0,0,1,4.063,3.46h0a4.14,4.14,0,0,1-.678,2.9,3.4,3.4,0,0,1-2.373,1.481A3.278,3.278,0,0,1,586.092,167.534Zm-.172-7.5a2.908,2.908,0,0,0-.37.024,3.017,3.017,0,0,0-2.1,1.315,3.749,3.749,0,0,0-.611,2.625,3.4,3.4,0,0,0,3.624,3.122,3.018,3.018,0,0,0,2.1-1.315,3.75,3.75,0,0,0,.611-2.625h0A3.451,3.451,0,0,0,585.919,160.033Z" transform="translate(-582.412 -159.641)"/>
        </g>
        <g id="Group_12963" data-name="Group 12963" transform="translate(46.183 23.747)">
          <path id="Path_1188" data-name="Path 1188" d="M560.2,168.721a3.842,3.842,0,0,1-3.643-3.488,3.6,3.6,0,1,1,7.113-.919h0a4.141,4.141,0,0,1-.678,2.9,3.406,3.406,0,0,1-2.373,1.481A3.277,3.277,0,0,1,560.2,168.721Zm-.172-7.5a2.849,2.849,0,0,0-.37.024,3.581,3.581,0,0,0,.912,7.062,3.018,3.018,0,0,0,2.1-1.315,3.749,3.749,0,0,0,.611-2.625h0A3.451,3.451,0,0,0,560.029,161.219Z" transform="translate(-556.523 -160.828)"/>
        </g>
        <g id="Group_12964" data-name="Group 12964" transform="translate(54.957 0)">
          <circle id="Ellipse_26" data-name="Ellipse 26" cx="6.376" cy="6.376" r="6.376" transform="translate(0 12.435) rotate(-77.198)"/>
        </g>
        <g id="Group_12965" data-name="Group 12965" transform="translate(45.595 10.836)">
          <path id="Path_1189" data-name="Path 1189" d="M575.576,142.313a17.9,17.9,0,0,1-3.15-7.377c-5.981,3.534-11.661,2.927-17.39,2.7a5.55,5.55,0,0,1,.486-2.9,9.968,9.968,0,0,1,5.685-5.759,16.357,16.357,0,0,1,8.309-1.418,12.649,12.649,0,0,1,6.675,3.479,11.2,11.2,0,0,1,3.114,5.734c.371,1.868-.086,3.244-.922,5.146a2.158,2.158,0,0,0-1.457-.405A2.678,2.678,0,0,0,575.576,142.313Z" transform="translate(-555.001 -127.464)"/>
        </g>
        <g id="Group_12966" data-name="Group 12966" transform="translate(56.303 33.012)">
          <path id="Path_1190" data-name="Path 1190" d="M583.876,187a1.744,1.744,0,0,1-1.132-.392.2.2,0,1,1,.251-.3,1.588,1.588,0,0,0,1.651.137,3.1,3.1,0,0,0,1.6-1.567.2.2,0,0,1,.355.166,3.491,3.491,0,0,1-1.8,1.763A2.4,2.4,0,0,1,583.876,187Z" transform="translate(-582.674 -184.768)"/>
        </g>
        <g id="Group_12967" data-name="Group 12967" transform="translate(58.427 26.91)">
          <path id="Path_1191" data-name="Path 1191" d="M589.362,169.5a.6.6,0,1,0-.524.644A.587.587,0,0,0,589.362,169.5Z" transform="translate(-588.162 -169.001)"/>
        </g>
        <g id="Group_12968" data-name="Group 12968" transform="translate(49.504 27.379)">
          <path id="Path_1192" data-name="Path 1192" d="M566.3,170.709a.6.6,0,1,0-.525.644A.588.588,0,0,0,566.3,170.709Z" transform="translate(-565.102 -170.213)"/>
        </g>
        <g id="Group_12969" data-name="Group 12969" transform="translate(52.797 27.268)">
          <path id="Path_1193" data-name="Path 1193" d="M574.869,174.164a.2.2,0,0,1-.07-.013l-.814-.309a.454.454,0,0,1-.209-.8,3.327,3.327,0,0,0,.549-2.866.2.2,0,1,1,.377-.106,3.72,3.72,0,0,1-.612,3.206.417.417,0,0,0-.086.146,1.045,1.045,0,0,0,.12.053l.814.309a.2.2,0,0,1-.069.379Z" transform="translate(-573.613 -169.926)"/>
        </g>
        <g id="Group_12970" data-name="Group 12970" transform="translate(52.797 25.304)">
          <path id="Path_1194" data-name="Path 1194" d="M573.809,166.2a.2.2,0,0,1-.2-.193c-.009-.55.527-.933,1.063-1.07a2.881,2.881,0,0,1,2.539.584.2.2,0,1,1-.257.3,2.479,2.479,0,0,0-2.184-.5c-.386.1-.774.365-.769.684a.2.2,0,0,1-.193.2Z" transform="translate(-573.613 -164.851)"/>
        </g>
        <g id="Group_12971" data-name="Group 12971" transform="translate(62.749 25.303)">
          <path id="Path_1195" data-name="Path 1195" d="M599.527,165.248a.2.2,0,0,1,0-.392l2.953-.009h0a.2.2,0,0,1,0,.392l-2.953.009Z" transform="translate(-599.331 -164.847)"/>
        </g>
        <g id="Group_12972" data-name="Group 12972" transform="translate(65.805 25.155)">
          <path id="Path_1196" data-name="Path 1196" d="M607.859,167.055h0a.2.2,0,0,1-.194-.2,5.327,5.327,0,0,0-.419-2.12.2.2,0,1,1,.361-.153,5.729,5.729,0,0,1,.45,2.277A.2.2,0,0,1,607.859,167.055Z" transform="translate(-607.228 -164.464)"/>
        </g>
        <g id="Group_12974" data-name="Group 12974" transform="translate(28.23 43.629)">
          <g id="Group_12973" data-name="Group 12973" transform="translate(0 0)">
            <path id="Path_1197" data-name="Path 1197" d="M570.277,236.509c-2.61-7.136-4.052-14.176-10.21-19.317a18.36,18.36,0,0,0-10.63-4.482c-.252,3.977-4.872,6.6-7.348,6.894-1.348.161-6.354.827-6.354-5.075-1.633.651-7.069,1.318-9.249,8.016-.891,2.739-2.488,13.222-7.752,19.3-1.243,1.435-2.392-8.114-4.181-7.479-1.755.624-3.777,1.668-3.909,3.527a3.624,3.624,0,0,0,2.424,3.282c2.866,1.231,3.94,7.2,7.028,7.634,3.211.453,8.339,1.637,12.221-10.5,1.984,1.984,3.264,4.115,5.489,5.314,6.413,3.457,27.753,7.339,31.23,7.956a1.286,1.286,0,0,0,1.059-.455A21.159,21.159,0,0,0,570.277,236.509Z" transform="translate(-510.441 -212.514)" fill="#ab63ff"/>
            <path id="Path_1198" data-name="Path 1198" d="M568.807,251.47a.678.678,0,0,1-.117-.009c-4.105-.728-24.906-4.536-31.288-7.977a13.893,13.893,0,0,1-3.792-3.433c-.479-.554-.973-1.125-1.517-1.686-1.653,5.046-3.661,8.2-6.134,9.65a8.372,8.372,0,0,1-5.876.722l-.325-.047c-1.746-.246-2.868-2.14-3.952-3.972-.911-1.538-1.853-3.129-3.127-3.676a3.806,3.806,0,0,1-2.542-3.477c.111-1.561,1.431-2.771,4.039-3.7a.7.7,0,0,1,.567.039c.821.41,1.452,2.43,2.062,4.383.41,1.313.972,3.113,1.347,3.191.04.009.088-.038.123-.079,4.193-4.839,6.068-12.607,7.076-16.78.257-1.063.459-1.9.638-2.45a11.473,11.473,0,0,1,8.5-7.855c.348-.1.647-.2.866-.283a.2.2,0,0,1,.269.182,5.037,5.037,0,0,0,1.4,3.942c1.5,1.327,3.813,1.048,4.684.944l.046-.005c2.374-.284,6.931-2.839,7.176-6.712a.2.2,0,0,1,.208-.183,18.449,18.449,0,0,1,10.743,4.527c5.124,4.277,6.995,9.814,8.976,15.677.411,1.218.837,2.477,1.293,3.723h0a21.444,21.444,0,0,1-.187,14.76A1.444,1.444,0,0,1,568.807,251.47Zm-36.8-13.669a.2.2,0,0,1,.138.058c.644.644,1.212,1.3,1.762,1.936a13.607,13.607,0,0,0,3.682,3.345c6.33,3.412,27.076,7.209,31.17,7.936a1.153,1.153,0,0,0,.845-.339,21.14,21.14,0,0,0,.179-14.471c-.458-1.251-.884-2.512-1.3-3.732-1.963-5.809-3.817-11.3-8.855-15.5a18.117,18.117,0,0,0-10.326-4.423,7.188,7.188,0,0,1-2.9,4.772,10.083,10.083,0,0,1-4.607,2.108l-.046.005c-.92.11-3.364.4-4.991-1.04a5.247,5.247,0,0,1-1.533-3.957c-.185.062-.4.127-.633.2-2.234.675-6.392,1.931-8.237,7.6-.174.534-.375,1.367-.63,2.421-1.015,4.205-2.905,12.033-7.161,16.945a.5.5,0,0,1-.5.205c-.573-.119-.977-1.329-1.642-3.458-.531-1.7-1.191-3.813-1.862-4.149a.316.316,0,0,0-.26-.021c-2.445.869-3.681,1.967-3.779,3.356a3.469,3.469,0,0,0,2.306,3.089c1.391.6,2.366,2.244,3.309,3.837,1.085,1.832,2.11,3.563,3.669,3.783l.327.047c3.177.462,7.978,1.162,11.68-10.412a.2.2,0,0,1,.141-.131A.205.205,0,0,1,532.006,237.8Z" transform="translate(-510.13 -212.203)"/>
          </g>
        </g>
        <g id="Group_12975" data-name="Group 12975" transform="translate(40.008 79.51)">
          <path id="Path_1199" data-name="Path 1199" d="M542.194,307.485l14.584.313.019-2.477-16.232-.4Z" transform="translate(-540.564 -304.924)"/>
        </g>
        <g id="Group_12976" data-name="Group 12976" transform="translate(44.627 70.097)">
          <path id="Path_1200" data-name="Path 1200" d="M588.591,285.311c-5.857-.327-11.75-.73-17.644-1.135-.528-.087-3.149-.462-3.8-.557a5.811,5.811,0,0,1-1.575-.515c-1.753-.809-5.514-2.4-6.352-1.928a10.364,10.364,0,0,0-5.055,3.731c-.769.992-1.4,2.635-1.081,2.917a.56.56,0,0,0,.732.068,9.251,9.251,0,0,1,4.5-4.458,13.084,13.084,0,0,0-2.525,1.859,4.934,4.934,0,0,0-1.658,2.651.354.354,0,0,0,.021.242c.105.173.373.072.532-.053.313-.245,4.343-3.518,5.1-3.431a20.3,20.3,0,0,0-4.585,3.583.615.615,0,0,0,.114.417.584.584,0,0,0,.55.174,1.59,1.59,0,0,0,.551-.24,26.827,26.827,0,0,1,3.452-2.1,2.06,2.06,0,0,1,1.933-.023,9.36,9.36,0,0,0-3.02,1.833,1.78,1.78,0,0,0-.348.443c-.137.245-.291.6-.1.8.311.331.573.164.84.009a18.238,18.238,0,0,1,3.3-1.74,1.232,1.232,0,0,1,1.1-.059,8.84,8.84,0,0,0,4.386,1.156,14.277,14.277,0,0,1,3.031.62c15.531,4.28,20.17,5.987,23.932,4.37.737-.317.985-.7.74-1.968C595,288.606,594.36,286.688,588.591,285.311Z" transform="translate(-552.809 -280.901)" fill="#fff"/>
          <path id="Path_1201" data-name="Path 1201" d="M591.457,294.454c-2.972,0-7.209-1.185-15.18-3.413-1.68-.47-3.583-1-5.653-1.572a14.289,14.289,0,0,0-2.99-.613,9.252,9.252,0,0,1-4.482-1.186,1.09,1.09,0,0,0-.92.076,17.933,17.933,0,0,0-3.265,1.722l-.028.017a.751.751,0,0,1-1.063-.055c-.316-.336-.023-.859.073-1.031a1.965,1.965,0,0,1,.387-.492,9.346,9.346,0,0,1,2.648-1.7,2.4,2.4,0,0,0-1.353.211,13.307,13.307,0,0,0-2.289,1.339c-.368.25-.749.508-1.137.743a1.771,1.771,0,0,1-.62.266.773.773,0,0,1-.734-.245.8.8,0,0,1-.157-.549.531.531,0,0,1,.135-.25l-.189.151-.14.111a.764.764,0,0,1-.559.18.377.377,0,0,1-.262-.18.433.433,0,0,1-.06-.23.753.753,0,0,1-.969-.086c-.511-.453.406-2.346,1.056-3.184a10.464,10.464,0,0,1,5.136-3.794c1-.5,4.879,1.18,6.509,1.932a5.7,5.7,0,0,0,1.521.5l.883.128c1.059.153,2.507.363,2.907.428,5.749.4,11.693.8,17.632,1.134a.207.207,0,0,1,.034.005c5.887,1.405,6.549,3.407,7.213,6.825.247,1.27.039,1.8-.854,2.185A7.888,7.888,0,0,1,591.457,294.454Zm-28.6-7.254a.916.916,0,0,1,.506.14,8.853,8.853,0,0,0,4.29,1.125,14.582,14.582,0,0,1,3.073.627c2.07.57,3.974,1.1,5.654,1.573,11.185,3.127,14.952,4.181,18.149,2.806.605-.26.864-.517.625-1.75-.65-3.35-1.253-5.163-6.9-6.515-5.939-.331-11.882-.74-17.629-1.134l-.019,0c-.382-.063-1.9-.282-2.908-.428l-.884-.128a6.069,6.069,0,0,1-1.628-.531c-2.628-1.213-5.557-2.281-6.175-1.935a.189.189,0,0,1-.041.017,10.2,10.2,0,0,0-4.956,3.664,4.62,4.62,0,0,0-1.1,2.653.388.388,0,0,0,.443.083,9.5,9.5,0,0,1,4.572-4.508.2.2,0,0,1,.178.349,12.893,12.893,0,0,0-2.487,1.83,4.63,4.63,0,0,0-1.6,2.541.237.237,0,0,0-.005.108.429.429,0,0,0,.244-.106l.137-.109c4.327-3.452,4.911-3.385,5.1-3.363a.2.2,0,0,1,.047.378,21.712,21.712,0,0,0-4.46,3.436.332.332,0,0,0,.437.362,1.432,1.432,0,0,0,.481-.214c.379-.23.756-.486,1.12-.733a13.574,13.574,0,0,1,2.358-1.376,2.251,2.251,0,0,1,2.12,0,.2.2,0,0,1-.042.344,9.1,9.1,0,0,0-2.957,1.794,1.565,1.565,0,0,0-.31.394c-.158.283-.205.491-.129.572.189.2.307.144.579-.015l.019-.011a18.287,18.287,0,0,1,3.327-1.753A2.155,2.155,0,0,1,562.859,287.2Z" transform="translate(-552.501 -280.6)"/>
        </g>
        <g id="Group_12979" data-name="Group 12979" transform="translate(0 59.257)">
          <g id="Group_12977" data-name="Group 12977">
            <path id="Path_1202" data-name="Path 1202" d="M437.687,253.094l31.7.174,10.927,22.444-31.406-.079Z" transform="translate(-437.491 -252.898)" fill="#fff"/>
            <path id="Path_1203" data-name="Path 1203" d="M480.008,275.6h0l-31.406-.079a.2.2,0,0,1-.175-.109L437.2,252.871a.2.2,0,0,1,.175-.283h0l31.7.174a.2.2,0,0,1,.175.11l10.928,22.444a.2.2,0,0,1-.176.282Zm-31.285-.471,30.971.078-10.737-22.052-31.263-.171Z" transform="translate(-437.181 -252.588)"/>
          </g>
          <g id="Group_12978" data-name="Group 12978" transform="translate(17.642 9.127)">
            <path id="Path_1204" data-name="Path 1204" d="M485.685,276.7a2.1,2.1,0,0,0-2.25.979,2.233,2.233,0,0,0,.582,2.472,2.872,2.872,0,0,0,2.537.607,1.968,1.968,0,0,0,1.223-.742,1.737,1.737,0,0,0,.274-.964C488.059,277.938,487.552,276.882,485.685,276.7Z" transform="translate(-483.078 -276.485)" fill="#fff"/>
            <path id="Path_1205" data-name="Path 1205" d="M485.572,280.716a2.964,2.964,0,0,1-1.995-.733,2.431,2.431,0,0,1-.629-2.7,2.247,2.247,0,0,1,2.448-1.094c2.114.207,2.55,1.5,2.543,2.549a1.92,1.92,0,0,1-.307,1.072,2.166,2.166,0,0,1-1.342.823A3.259,3.259,0,0,1,485.572,280.716Zm-.534-4.149a1.788,1.788,0,0,0-1.731.878,2.029,2.029,0,0,0,.535,2.248,2.669,2.669,0,0,0,2.363.561,1.771,1.771,0,0,0,1.1-.661,1.555,1.555,0,0,0,.24-.855c.009-1.305-.708-2.01-2.19-2.156h0C485.282,276.574,485.17,276.567,485.037,276.567Z" transform="translate(-482.77 -276.172)"/>
          </g>
        </g>
        <g id="Group_12980" data-name="Group 12980" transform="translate(73.274 54.106)">
          <path id="Path_1206" data-name="Path 1206" d="M630.168,259.671a.2.2,0,0,1-.186-.134c-2.205-6.679-3.453-10.9-3.453-20.064a.2.2,0,0,1,.392,0c0,9.1,1.241,13.3,3.434,19.941a.2.2,0,0,1-.125.248A.2.2,0,0,1,630.168,259.671Z" transform="translate(-626.528 -239.277)"/>
        </g>
        <g id="Group_12981" data-name="Group 12981" transform="translate(47.927 54.76)">
          <path id="Path_1207" data-name="Path 1207" d="M563.208,255.826a.2.2,0,0,1-.161-.084c-2.842-4.089-2.073-7.084-1.33-9.981a15.818,15.818,0,0,0,.7-4.591.2.2,0,0,1,.188-.2.194.194,0,0,1,.2.189,16.117,16.117,0,0,1-.709,4.7c-.755,2.941-1.468,5.718,1.272,9.66a.2.2,0,0,1-.049.272A.193.193,0,0,1,563.208,255.826Z" transform="translate(-561.029 -240.967)"/>
        </g>
        <g id="Group_12982" data-name="Group 12982" transform="translate(50.768 58.235)">
          <path id="Path_1208" data-name="Path 1208" d="M576.977,251.274a35.163,35.163,0,0,1-8.557-.961.065.065,0,0,1-.048-.079.066.066,0,0,1,.079-.048c7.1,1.779,14.755.707,21.51-.239a.066.066,0,0,1,.074.056.065.065,0,0,1-.055.074A94.15,94.15,0,0,1,576.977,251.274Z" transform="translate(-568.371 -249.947)"/>
        </g>
        <g id="Group_12983" data-name="Group 12983" transform="translate(49.365 63.464)">
          <path id="Path_1209" data-name="Path 1209" d="M577.349,265.091a52.968,52.968,0,0,1-12.555-1.5.065.065,0,0,1,.031-.127,53.029,53.029,0,0,0,23.069.438.065.065,0,1,1,.026.128A52.824,52.824,0,0,1,577.349,265.091Z" transform="translate(-564.745 -263.46)"/>
        </g>
        <g id="Group_12984" data-name="Group 12984" transform="translate(77.396 72.005)">
          <path id="Path_1210" data-name="Path 1210" d="M648.333,289.855a.066.066,0,0,1-.05-.023,12.063,12.063,0,0,0-11.03-4.011.065.065,0,1,1-.022-.129,12.2,12.2,0,0,1,11.151,4.055.065.065,0,0,1-.049.108Z" transform="translate(-637.178 -285.53)"/>
        </g>
        <g id="Group_12985" data-name="Group 12985" transform="translate(83.881 71.045)">
          <path id="Path_1211" data-name="Path 1211" d="M658.122,285.45a.069.069,0,0,1-.024-.005,3.956,3.956,0,0,1-1.118-.788c-.118-.105-.24-.214-.363-.315a5.384,5.384,0,0,0-2.625-1.162.065.065,0,0,1,.019-.129,5.519,5.519,0,0,1,2.689,1.19c.125.1.248.212.367.319a3.868,3.868,0,0,0,1.08.764.065.065,0,0,1-.024.126Z" transform="translate(-653.936 -283.05)"/>
        </g>
      </g>
      <g id="Group_12994" data-name="Group 12994" transform="translate(219.91 67.705)">
        <g id="Group_12987" data-name="Group 12987" transform="translate(13.435 0)">
          <path id="Path_1212" data-name="Path 1212" d="M672.14,103.852a4.033,4.033,0,0,1,.214-1.409,1.934,1.934,0,0,1,.455-.785.922.922,0,0,1,.824-.266,1,1,0,0,1,.637.582,3.072,3.072,0,0,1,.211.876l.143,1.028Z" transform="translate(-671.942 -101.176)" fill="#fff"/>
          <path id="Path_1213" data-name="Path 1213" d="M674.313,103.763h0l-2.484-.024a.2.2,0,0,1-.194-.191,4.2,4.2,0,0,1,.224-1.478,2.076,2.076,0,0,1,.5-.863,1.12,1.12,0,0,1,1-.315,1.183,1.183,0,0,1,.771.691,3.257,3.257,0,0,1,.226.931l.143,1.028a.2.2,0,0,1-.194.223Zm-2.289-.414,2.064.021-.112-.8a2.928,2.928,0,0,0-.195-.82.808.808,0,0,0-.5-.474.727.727,0,0,0-.644.217,1.71,1.71,0,0,0-.405.707A3.834,3.834,0,0,0,672.024,103.348Z" transform="translate(-671.632 -100.867)"/>
        </g>
        <g id="Group_12988" data-name="Group 12988" transform="translate(0 1.556)">
          <path id="Path_1214" data-name="Path 1214" d="M665.931,119.342a16.385,16.385,0,0,0-6.558-11.6,13.347,13.347,0,0,0-13.079-1.156c-3.19,1.426-7.286,5.066-8.874,12.8,1.482-1.953,3.934-2.7,5.655.134,1.864-3.208,4.51-2.335,6.093-.248a3.841,3.841,0,0,1,3.2-1.953,3.277,3.277,0,0,1,2.884,1.879,2.727,2.727,0,0,1,5.177.026,2.882,2.882,0,0,1,2.728-1.841A3.036,3.036,0,0,1,665.931,119.342Z" transform="translate(-637.225 -105.198)" fill="#fff"/>
          <path id="Path_1215" data-name="Path 1215" d="M642.766,119.4a.2.2,0,0,1-.168-.094,3.172,3.172,0,0,0-2.44-1.771,3.589,3.589,0,0,0-2.891,1.653.2.2,0,0,1-.348-.158,20.9,20.9,0,0,1,3.874-8.851,13.691,13.691,0,0,1,5.111-4.093,13.906,13.906,0,0,1,6.8-1.156,12.944,12.944,0,0,1,6.471,2.332,16.518,16.518,0,0,1,6.639,11.742.2.2,0,0,1-.373.1,2.833,2.833,0,0,0-2.6-1.847,2.675,2.675,0,0,0-2.537,1.714.2.2,0,0,1-.183.127h0a.2.2,0,0,1-.183-.132,2.631,2.631,0,0,0-2.395-1.749h-.011a2.631,2.631,0,0,0-2.4,1.724.2.2,0,0,1-.363.017,3.063,3.063,0,0,0-2.707-1.765h-.011a3.653,3.653,0,0,0-3.01,1.841.2.2,0,0,1-.333.034,3.849,3.849,0,0,0-3.124-1.787,3.476,3.476,0,0,0-2.644,2.015.2.2,0,0,1-.167.1Zm-2.727-2.26c.046,0,.092,0,.139,0a3.338,3.338,0,0,1,2.583,1.691,3.613,3.613,0,0,1,2.793-1.938,4.088,4.088,0,0,1,3.274,1.707,4.1,4.1,0,0,1,3.217-1.8h.014a3.46,3.46,0,0,1,2.865,1.63,3.037,3.037,0,0,1,2.6-1.607h.013a3.037,3.037,0,0,1,2.585,1.6,3.1,3.1,0,0,1,5.164-.34,15.958,15.958,0,0,0-6.34-10.512,13.229,13.229,0,0,0-12.885-1.137c-1.981.885-6.692,3.794-8.6,11.914A3.7,3.7,0,0,1,640.039,117.144Z" transform="translate(-636.914 -104.888)" fill="#6319b8"/>
        </g>
        <g id="Group_12989" data-name="Group 12989" transform="translate(14.255 13.562)">
          <path id="Path_1216" data-name="Path 1216" d="M676.444,154.141a1.962,1.962,0,0,1-.242-.015,2.811,2.811,0,0,1-2.162-1.989,8.3,8.3,0,0,1-.273-2.955l.391-13.079a.2.2,0,1,1,.392.012l-.391,13.078a7.885,7.885,0,0,0,.252,2.816,2.423,2.423,0,0,0,1.838,1.728c1.178.142,2.206-1.068,2.392-2.241a.2.2,0,0,1,.387.062A2.936,2.936,0,0,1,676.444,154.141Z" transform="translate(-673.751 -135.913)" fill="#6319b8"/>
        </g>
        <g id="Group_12990" data-name="Group 12990" transform="translate(5.722 1.688)">
          <path id="Path_1217" data-name="Path 1217" d="M651.767,119.223h-.005a.066.066,0,0,1-.06-.07c.654-8.617,5.977-12.418,9.091-13.916a.065.065,0,0,1,.05,0c6.987,2.518,7.86,8.894,8.5,13.549a.065.065,0,0,1-.13.018c-.633-4.617-1.5-10.937-8.387-13.435-3.092,1.495-8.345,5.268-8.992,13.8A.065.065,0,0,1,651.767,119.223Z" transform="translate(-651.702 -105.23)"/>
        </g>
        <g id="Group_12991" data-name="Group 12991" transform="translate(11.758 1.666)">
          <path id="Path_1218" data-name="Path 1218" d="M667.363,119.221h-.005a.066.066,0,0,1-.06-.07c.359-4.519.766-9.641,2.987-13.943a.066.066,0,0,1,.057-.035.057.057,0,0,1,.058.034c2.356,4.26,2.814,9.324,3.218,13.792a.065.065,0,1,1-.13.012c-.4-4.417-.852-9.419-3.143-13.632-2.16,4.256-2.562,9.315-2.917,13.784A.065.065,0,0,1,667.363,119.221Z" transform="translate(-667.297 -105.172)"/>
        </g>
        <g id="Group_12992" data-name="Group 12992" transform="translate(2.345 10.416)">
          <path id="Path_1219" data-name="Path 1219" d="M643.041,130.452h-.01a.065.065,0,0,1-.055-.074,7.36,7.36,0,0,1,.887-2.561.065.065,0,0,1,.114.065,7.228,7.228,0,0,0-.871,2.516A.066.066,0,0,1,643.041,130.452Z" transform="translate(-642.975 -127.782)"/>
        </g>
        <g id="Group_12993" data-name="Group 12993" transform="translate(3.728 8.749)">
          <path id="Path_1220" data-name="Path 1220" d="M646.614,124.205a.065.065,0,0,1-.057-.1l.329-.6a.065.065,0,1,1,.115.063l-.329.6A.064.064,0,0,1,646.614,124.205Z" transform="translate(-646.548 -123.476)"/>
        </g>
      </g>
      <g id="Group_12998" data-name="Group 12998" transform="translate(150.822 161.433)">
        <path id="Path_1223" data-name="Path 1223" d="M273.966,294.007l-.024,0a4.857,4.857,0,0,1-1.558-.462.2.2,0,0,1,.173-.352,4.474,4.474,0,0,0,1.433.425.2.2,0,0,1-.024.39Zm1.558-.066a.2.2,0,0,1-.04-.388,4.436,4.436,0,0,0,1.39-.547.2.2,0,0,1,.2.336,4.833,4.833,0,0,1-1.513.6A.182.182,0,0,1,275.524,293.941Zm-4.319-1.292a.2.2,0,0,1-.14-.059,4.645,4.645,0,0,1-.918-1.344.2.2,0,0,1,.358-.161,4.246,4.246,0,0,0,.841,1.231.2.2,0,0,1-.14.333Zm6.949-.3a.192.192,0,0,1-.124-.045.2.2,0,0,1-.028-.276,4.2,4.2,0,0,0,.726-1.3.2.2,0,0,1,.371.127,4.59,4.59,0,0,1-.793,1.422A.2.2,0,0,1,278.155,292.349Zm-8.2-2.5a.2.2,0,0,1-.2-.184c-.005-.093-.009-.187-.009-.281a4.523,4.523,0,0,1,.292-1.6.2.2,0,1,1,.367.139,4.13,4.13,0,0,0-.267,1.464q0,.129.008.257a.2.2,0,0,1-.183.208Zm9.194-.4a.2.2,0,0,1-.2-.19,4.123,4.123,0,0,0-.311-1.455.2.2,0,0,1,.362-.15,4.53,4.53,0,0,1,.341,1.593.2.2,0,0,1-.19.2Zm-8.122-2.738a.2.2,0,0,1-.148-.324,4.78,4.78,0,0,1,1.26-1.028.2.2,0,0,1,.193.341,4.366,4.366,0,0,0-1.157.944A.2.2,0,0,1,271.023,286.708Zm6.955-.1a.194.194,0,0,1-.144-.063,4.4,4.4,0,0,0-1.184-.91.2.2,0,1,1,.183-.346,4.782,4.782,0,0,1,1.29.991.2.2,0,0,1-.144.329Zm-4.28-1.415a.2.2,0,0,1-.034-.389,4.976,4.976,0,0,1,.879-.078h0a5.01,5.01,0,0,1,.743.055.2.2,0,0,1-.058.388,4.353,4.353,0,0,0-.687-.051,4.558,4.558,0,0,0-.81.072A.184.184,0,0,1,273.7,285.193Z" transform="translate(-269.748 -284.726)"/>
      </g>
      <g id="Group_12999" data-name="Group 12999" transform="translate(274.698 76.168)">
        <path id="Path_1224" data-name="Path 1224" d="M732.714,150.416a.2.2,0,0,1-.024-.39,5.814,5.814,0,0,0,1.463-.381.2.2,0,1,1,.147.363,6.209,6.209,0,0,1-1.562.407Zm-1.562,0-.026,0a6.216,6.216,0,0,1-1.559-.415.2.2,0,0,1,.149-.362,5.823,5.823,0,0,0,1.461.389.2.2,0,0,1-.025.39Zm4.433-1.161a.2.2,0,0,1-.118-.352,5.637,5.637,0,0,0,1.071-1.065.2.2,0,0,1,.311.238,6.044,6.044,0,0,1-1.146,1.138A.2.2,0,0,1,735.585,149.25Zm-7.3-.021a.2.2,0,0,1-.119-.041,6.045,6.045,0,0,1-1.138-1.145.2.2,0,1,1,.312-.237,5.653,5.653,0,0,0,1.065,1.072.2.2,0,0,1-.12.351Zm9.178-2.44a.2.2,0,0,1-.182-.268,5.37,5.37,0,0,0,.352-1.466.2.2,0,1,1,.39.038,5.748,5.748,0,0,1-.378,1.572A.2.2,0,0,1,737.464,146.79Zm-11.042-.032a.2.2,0,0,1-.183-.125,5.752,5.752,0,0,1-.368-1.575.2.2,0,0,1,.39-.035,5.353,5.353,0,0,0,.343,1.467.2.2,0,0,1-.112.254A.193.193,0,0,1,726.422,146.758Zm-.378-2.02a.2.2,0,0,1-.2-.2,5.768,5.768,0,0,1,.226-1.6.2.2,0,0,1,.377.109,5.372,5.372,0,0,0-.211,1.493A.2.2,0,0,1,726.044,144.738Zm11.715-1.027a.2.2,0,0,1-.192-.16,5.367,5.367,0,0,0-.483-1.428.2.2,0,0,1,.35-.176,5.767,5.767,0,0,1,.517,1.532.2.2,0,0,1-.157.229A.189.189,0,0,1,737.759,143.711ZM726.9,141.766a.2.2,0,0,1-.166-.3,5.972,5.972,0,0,1,1.036-1.239.2.2,0,1,1,.264.289,5.6,5.6,0,0,0-.968,1.158A.2.2,0,0,1,726.9,141.766Zm9.472-.821a.2.2,0,0,1-.145-.064,5.679,5.679,0,0,0-1.158-.971.2.2,0,1,1,.21-.331,6.076,6.076,0,0,1,1.238,1.037.2.2,0,0,1-.145.328Zm-7.185-1.269a.2.2,0,0,1-.09-.37,6.2,6.2,0,0,1,1.52-.544.2.2,0,1,1,.083.383,5.8,5.8,0,0,0-1.423.509A.2.2,0,0,1,729.187,139.676Zm4.569-.391a.189.189,0,0,1-.058-.009,5.874,5.874,0,0,0-1.49-.258.2.2,0,0,1,.017-.392,6.247,6.247,0,0,1,1.59.276.2.2,0,0,1-.058.383Z" transform="translate(-725.848 -138.626)"/>
      </g>
      <g id="Group_13011" data-name="Group 13011" transform="translate(85.747 101.105)">
        <g id="Group_13000" data-name="Group 13000" transform="translate(0 17.322)">
          <path id="Path_1225" data-name="Path 1225" d="M84.411,174.349H84.4l-8.469-.363a.2.2,0,0,1,.017-.392l8.469.363a.2.2,0,0,1-.008.392Z" transform="translate(-75.747 -173.595)" fill="#6319b8"/>
        </g>
        <g id="Group_13001" data-name="Group 13001" transform="translate(2.58 20.399)">
          <path id="Path_1226" data-name="Path 1226" d="M82.609,183.835a.2.2,0,0,1-.108-.36,14.684,14.684,0,0,1,4.29-1.922.2.2,0,1,1,.1.378,14.3,14.3,0,0,0-4.176,1.871A.2.2,0,0,1,82.609,183.835Z" transform="translate(-82.413 -181.547)" fill="#6319b8"/>
        </g>
        <g id="Group_13002" data-name="Group 13002" transform="translate(3.956 13.42)">
          <path id="Path_1227" data-name="Path 1227" d="M89.137,165.593a.2.2,0,0,1-.082-.019,21.541,21.541,0,0,1-3-1.7.2.2,0,1,1,.22-.324,21.182,21.182,0,0,0,2.945,1.672.2.2,0,0,1-.083.374Z" transform="translate(-85.969 -163.513)" fill="#6319b8"/>
        </g>
        <g id="Group_13010" data-name="Group 13010" transform="translate(10.904 0)">
          <g id="Group_13003" data-name="Group 13003" transform="translate(12.828)">
            <path id="Path_1228" data-name="Path 1228" d="M147.12,148.029l-4.466-18.47-3.9-.22-1.18,35.547,3.487.169Z" transform="translate(-137.382 -129.143)" fill="#fff"/>
            <path id="Path_1229" data-name="Path 1229" d="M140.754,164.941h-.009l-3.487-.169a.2.2,0,0,1-.186-.2l1.18-35.547a.2.2,0,0,1,.063-.138.2.2,0,0,1,.143-.051l3.9.219a.2.2,0,0,1,.18.15L147,147.673a.2.2,0,0,1-.006.111l-6.056,17.027A.2.2,0,0,1,140.754,164.941Zm-3.284-.552,3.148.153,5.987-16.834-4.418-18.272-3.551-.2Z" transform="translate(-137.072 -128.833)" fill="#9858e1"/>
          </g>
          <g id="Group_13004" data-name="Group 13004" transform="translate(0 10.524)">
            <path id="Path_1230" data-name="Path 1230" d="M112.019,163.9l-4.123-7.365-3.107,2.06,2.035,5.117-2.393,4.849,2.936,2.067Z" transform="translate(-104.235 -156.338)" fill="#fff"/>
            <path id="Path_1231" data-name="Path 1231" d="M107.056,170.513a.2.2,0,0,1-.113-.036l-2.936-2.067a.2.2,0,0,1-.063-.247l2.354-4.772-2-5.036a.2.2,0,0,1,.074-.236l3.107-2.06a.194.194,0,0,1,.154-.027.2.2,0,0,1,.125.095l4.123,7.364a.2.2,0,0,1-.01.207l-4.652,6.729a.2.2,0,0,1-.127.082A.2.2,0,0,1,107.056,170.513Zm-2.686-2.327,2.638,1.857,4.47-6.466-3.96-7.073-2.8,1.855,1.976,4.969a.2.2,0,0,1-.006.159Z" transform="translate(-103.924 -156.027)" fill="#9858e1"/>
          </g>
          <g id="Group_13005" data-name="Group 13005" transform="translate(0.471 14.78)">
            <path id="Path_1232" data-name="Path 1232" d="M105.723,169.908a3.025,3.025,0,0,1,2.3-1.657c1.167-.221.824-.27,13.576-.589,4.087-.1,11.2-.936,15.22,3.316a.751.751,0,0,1-.01,1.28c-3.413,3.266-8.747,2.317-13.611,1.95-5.64-.425-10.708-1.156-14.8-1.649C105.652,172.228,105.494,170.477,105.723,169.908Z" transform="translate(-105.453 -167.335)" fill="#fff"/>
            <path id="Path_1233" data-name="Path 1233" d="M129.147,174.511c-1.486,0-3.02-.136-4.537-.27-.571-.051-1.161-.1-1.733-.146-4.34-.327-8.314-.831-11.82-1.276-1.052-.134-2.045-.259-2.992-.373a3.272,3.272,0,0,1-2.64-1.394,1.829,1.829,0,0,1-.2-1.525h0a3.215,3.215,0,0,1,2.45-1.776l.168-.033c1.014-.2,1.32-.257,13.44-.56.444-.011.925-.031,1.433-.052,4.1-.169,10.292-.424,13.935,3.429a.937.937,0,0,1-.017,1.556C134.623,174.02,131.974,174.511,129.147,174.511Zm-3.443-7.092c-1.058,0-2.064.041-2.967.079-.51.021-.993.041-1.44.052-12.087.3-12.386.361-13.375.553l-.169.033a2.863,2.863,0,0,0-2.159,1.538h0a1.434,1.434,0,0,0,.17,1.179,2.906,2.906,0,0,0,2.349,1.2c.948.114,1.942.24,2.994.374,3.5.444,7.469.948,11.8,1.274.575.043,1.166.1,1.738.146,4.314.382,8.776.777,11.723-2.043a.569.569,0,0,0,0-1C133.64,167.916,129.365,167.419,125.7,167.419ZM105.412,169.6h0Z" transform="translate(-105.142 -167.026)" fill="#9858e1"/>
          </g>
          <g id="Group_13006" data-name="Group 13006" transform="translate(25.047 16.475)">
            <path id="Path_1234" data-name="Path 1234" d="M169.576,171.407a2.12,2.12,0,0,1,1.951,2.317,2.172,2.172,0,0,1-1.6,1.91,1.342,1.342,0,0,1-.83.05.608.608,0,0,1-.443-.626c.046-.27.313-.438.489-.65a1.633,1.633,0,0,0,.241-1.326c-.108-.289-.572-.652-.541-1.026A.653.653,0,0,1,169.576,171.407Z" transform="translate(-168.648 -171.406)" fill="#6319b8"/>
          </g>
          <g id="Group_13007" data-name="Group 13007" transform="translate(15.315 1.545)">
            <path id="Path_1235" data-name="Path 1235" d="M143.563,135.832h0a.065.065,0,0,1-.063-.067l.1-2.875a.065.065,0,0,1,.131,0l-.1,2.875A.065.065,0,0,1,143.563,135.832Z" transform="translate(-143.498 -132.826)"/>
          </g>
          <g id="Group_13008" data-name="Group 13008" transform="translate(16.604 1.557)">
            <path id="Path_1236" data-name="Path 1236" d="M146.9,134.223h0a.065.065,0,0,1-.065-.065l0-1.236a.065.065,0,0,1,.065-.065h0a.065.065,0,0,1,.065.065l0,1.236A.066.066,0,0,1,146.9,134.223Z" transform="translate(-146.831 -132.857)"/>
          </g>
          <g id="Group_13009" data-name="Group 13009" transform="translate(14.094 32.186)">
            <path id="Path_1237" data-name="Path 1237" d="M140.409,214.541H140.4a.066.066,0,0,1-.055-.074c.115-.793.194-1.6.233-2.4a.064.064,0,0,1,.069-.062.066.066,0,0,1,.062.068c-.04.8-.118,1.615-.234,2.412A.065.065,0,0,1,140.409,214.541Z" transform="translate(-140.343 -212.005)"/>
          </g>
        </g>
      </g>
      <g id="Group_13013" data-name="Group 13013" transform="translate(111.326 88.369)">
        <path id="Path_1238" data-name="Path 1238" d="M167.688,97.722a1.794,1.794,0,1,1,1.794,1.8A1.8,1.8,0,0,1,167.688,97.722Z" transform="translate(-167.688 -95.924)" fill="#fff"/>
      </g>
      <g id="Group_13024" data-name="Group 13024" transform="translate(107.885 134.263)">
        <g id="Group_13020" data-name="Group 13020" transform="translate(0 22.497)">
          <g id="Group_13014" data-name="Group 13014">
            <path id="Path_1239" data-name="Path 1239" d="M190.944,273.625s-6.584,1.536-7.852,1.269c-1.818-.382-3.256-.771-5.064-.177a16.438,16.438,0,0,0-2.956,1.562,8.484,8.484,0,0,1-2.693,1.255,18.276,18.276,0,0,1-4.288-1.631c-1.656-.977-3.317-2.127-3.807-2.416-1.3-.765-1.647-.049-2.188.392-.683-.456-2.373-.468-2.223.879.046.408-.52.224-.57,1.058-.084,1.394,3.046,4.652,5.6,6.666,2.414,1.211,6.431,3.376,9.879,4.141,1.593.353,8.042-2.529,12.1-3.961,2.376-.839,1.763-.231,3.542-.558C191.251,281.284,190.944,273.625,190.944,273.625Z" transform="translate(-159.106 -272.957)" fill="#fff"/>
            <path id="Path_1240" data-name="Path 1240" d="M174.775,286.541a1.633,1.633,0,0,1-.348-.033,42.525,42.525,0,0,1-9.062-3.72q-.459-.233-.863-.437a.2.2,0,0,1-.033-.021c-2.411-1.9-5.764-5.282-5.671-6.831a1.011,1.011,0,0,1,.463-.881c.115-.083.114-.089.108-.144a1.105,1.105,0,0,1,.511-1.157,2.085,2.085,0,0,1,1.885.016c.045-.041.091-.084.137-.129a1.5,1.5,0,0,1,2.172-.193c.176.1.5.317.911.586.772.507,1.828,1.2,2.9,1.83a17.865,17.865,0,0,0,4.181,1.595c.216-.075.383-.129.531-.177a7.492,7.492,0,0,0,2.066-1.04l.15-.092a15.612,15.612,0,0,1,2.848-1.489,8.418,8.418,0,0,1,4.759.085l.407.087c.969.2,5.5-.74,7.767-1.268a.2.2,0,0,1,.24.183c.032.793.285,7.77-.585,8.627a.2.2,0,0,1-.1.053,5.009,5.009,0,0,1-1.374.1,4.627,4.627,0,0,0-2.138.45c-1.125.4-2.414.9-3.778,1.429C179.6,285.235,176.24,286.541,174.775,286.541ZM164.7,282.009c.264.133.547.277.847.429a42.211,42.211,0,0,0,8.969,3.687c1.091.243,4.868-1.226,8.2-2.521,1.367-.531,2.659-1.034,3.789-1.433a4.947,4.947,0,0,1,2.291-.473,4.562,4.562,0,0,0,1.214-.081c.513-.7.546-5.174.442-8.055-1.2.274-6.533,1.464-7.7,1.217l-.409-.087a8,8,0,0,0-4.554-.1,15.327,15.327,0,0,0-2.765,1.451l-.15.092a7.854,7.854,0,0,1-2.151,1.079c-.159.051-.34.109-.579.193a.2.2,0,0,1-.118,0,18.388,18.388,0,0,1-4.335-1.651c-1.076-.635-2.137-1.332-2.912-1.84-.406-.266-.726-.477-.9-.576-.96-.567-1.288-.255-1.7.139-.083.079-.169.161-.262.236a.2.2,0,0,1-.233.011,1.7,1.7,0,0,0-1.594-.085.738.738,0,0,0-.325.779.5.5,0,0,1-.267.5.636.636,0,0,0-.3.587C159.116,276.741,161.974,279.857,164.7,282.009Z" transform="translate(-158.796 -272.65)"/>
          </g>
          <g id="Group_13015" data-name="Group 13015" transform="translate(9.502 4.074)">
            <path id="Path_1241" data-name="Path 1241" d="M185.712,287.55a2.4,2.4,0,0,1-2.084-.908c-.562-.729-.171-1.38.285-1.921a7.953,7.953,0,0,1,2.947-1.169c.509-.145.948-.271,1.155-.359a.2.2,0,1,1,.154.36c-.229.1-.68.227-1.2.375a9.353,9.353,0,0,0-2.755,1.045c-.531.629-.6,1-.274,1.429.812,1.055,2.149.81,4.175.44a24.822,24.822,0,0,1,4.611-.516.2.2,0,0,1,0,.392,24.159,24.159,0,0,0-4.541.509A14.7,14.7,0,0,1,185.712,287.55Z" transform="translate(-183.35 -283.177)"/>
          </g>
          <g id="Group_13016" data-name="Group 13016" transform="translate(0.499 1.752)">
            <path id="Path_1242" data-name="Path 1242" d="M169.982,283.485a.2.2,0,0,1-.086-.02,29.853,29.853,0,0,1-6.247-4.025c-.1-.081-.208-.185-.335-.3-.711-.652-2.033-1.866-2.961-1.5a.2.2,0,0,1-.144-.365c1.156-.458,2.542.815,3.37,1.575.123.113.233.214.325.293a29.442,29.442,0,0,0,6.164,3.97.2.2,0,0,1-.086.372Z" transform="translate(-160.086 -277.178)"/>
          </g>
          <g id="Group_13017" data-name="Group 13017" transform="translate(2.754 0.695)">
            <path id="Path_1243" data-name="Path 1243" d="M173.555,279.5a.211.211,0,0,1-.046-.005c-1.887-.455-3.861-1.986-5.446-3.216a17.7,17.7,0,0,0-2.046-1.46.2.2,0,1,1,.187-.345,17.9,17.9,0,0,1,2.1,1.495c1.556,1.207,3.493,2.71,5.3,3.145a.2.2,0,0,1-.046.387Z" transform="translate(-165.914 -274.448)"/>
          </g>
          <g id="Group_13018" data-name="Group 13018" transform="translate(30.095 3.847)">
            <path id="Path_1244" data-name="Path 1244" d="M236.629,286.58h-.013a.065.065,0,0,1-.051-.077,15.128,15.128,0,0,0,.262-3.84.065.065,0,0,1,.13-.008,15.247,15.247,0,0,1-.264,3.873A.065.065,0,0,1,236.629,286.58Z" transform="translate(-236.564 -282.592)"/>
          </g>
          <g id="Group_13019" data-name="Group 13019" transform="translate(28.745 6.404)">
            <path id="Path_1245" data-name="Path 1245" d="M233.141,290.719a.066.066,0,0,1-.021,0,.066.066,0,0,1-.041-.083,4.182,4.182,0,0,0,.229-1.367.066.066,0,0,1,.065-.065h0a.066.066,0,0,1,.065.065,4.325,4.325,0,0,1-.237,1.41A.065.065,0,0,1,233.141,290.719Z" transform="translate(-233.076 -289.2)"/>
          </g>
        </g>
        <g id="Group_13023" data-name="Group 13023" transform="translate(5.876)">
          <g id="Group_13021" data-name="Group 13021">
            <path id="Path_1246" data-name="Path 1246" d="M178.885,233.491l11.786-.092V224.7h3.761l-9.776-9.681-10.17,9.6h4.353Z" transform="translate(-174.29 -214.827)" fill="#fff"/>
            <path id="Path_1247" data-name="Path 1247" d="M178.574,233.377a.2.2,0,0,1-.2-.2l-.046-8.676h-4.157a.2.2,0,0,1-.135-.339l10.17-9.6a.2.2,0,0,1,.272,0l9.776,9.681a.2.2,0,0,1-.138.335h-3.565v8.5a.2.2,0,0,1-.194.2l-11.786.092Zm-3.906-9.263h3.859a.2.2,0,0,1,.2.2l.045,8.675,11.395-.089v-8.5a.2.2,0,0,1,.2-.2h3.284l-9.3-9.213Z" transform="translate(-173.979 -214.517)"/>
          </g>
          <g id="Group_13022" data-name="Group 13022" transform="translate(8.547 10.829)">
            <rect id="Rectangle_205" data-name="Rectangle 205" width="3.324" height="3.555" transform="translate(0.196 0.196)" fill="#ab63ff"/>
            <path id="Path_1248" data-name="Path 1248" d="M199.584,246.448H196.26a.2.2,0,0,1-.2-.2V242.7a.2.2,0,0,1,.2-.2h3.324a.2.2,0,0,1,.2.2v3.555A.2.2,0,0,1,199.584,246.448Zm-3.128-.392h2.933v-3.163h-2.933Z" transform="translate(-196.064 -242.501)"/>
          </g>
        </g>
      </g>
    </g>
  </g>
</svg>
