<svg xmlns="http://www.w3.org/2000/svg" xmlns:xlink="http://www.w3.org/1999/xlink" width="26" height="26" viewBox="0 0 26 26">
  <defs>
    <clipPath id="clip-path">
      <rect id="two-cheerful-lovely-sweet-tender-beautiful-adorable-cute-romantic-married-spouses-husband-wife" width="10" height="10" transform="translate(2.456 2.094)" fill="#ee4854"/>
    </clipPath>
  </defs>
  <g id="play" transform="translate(-0.214 0.292)">
    <rect id="two-cheerful-lovely-sweet-tender-beautiful-adorable-cute-romantic-married-spouses-husband-wife-2" data-name="two-cheerful-lovely-sweet-tender-beautiful-adorable-cute-romantic-married-spouses-husband-wife" width="26" height="26" rx="13" transform="translate(0.214 -0.292)" fill="#ee4854" opacity="0.2"/>
    <path id="two-cheerful-lovely-sweet-tender-beautiful-adorable-cute-romantic-married-spouses-husband-wife-3" data-name="two-cheerful-lovely-sweet-tender-beautiful-adorable-cute-romantic-married-spouses-husband-wife" d="M11.143,0H12A12,12,0,0,1,24,12v0A12,12,0,0,1,12,24h0A12,12,0,0,1,0,12v-.857A11.143,11.143,0,0,1,11.143,0Z" transform="translate(1.214 0.708)" fill="#ee4854" opacity="0.3"/>
    <path id="two-cheerful-lovely-sweet-tender-beautiful-adorable-cute-romantic-married-spouses-husband-wife-4" data-name="two-cheerful-lovely-sweet-tender-beautiful-adorable-cute-romantic-married-spouses-husband-wife" d="M10.214,0H11A11,11,0,0,1,22,11v0A11,11,0,0,1,11,22h0A11,11,0,0,1,0,11v-.786A10.214,10.214,0,0,1,10.214,0Z" transform="translate(2.214 1.708)" fill="#ee4854" opacity="0.3"/>
    <g id="Group_12330" data-name="Group 12330" transform="translate(2.758 2.758)">
      <rect id="two-cheerful-lovely-sweet-tender-beautiful-adorable-cute-romantic-married-spouses-husband-wife-5" data-name="two-cheerful-lovely-sweet-tender-beautiful-adorable-cute-romantic-married-spouses-husband-wife" width="20" height="20" rx="10" transform="translate(0.456 -0.049)" fill="#fff"/>
      <g id="Mask_Group_43" data-name="Mask Group 43" transform="translate(4 2.857)" clip-path="url(#clip-path)">
        <path id="play-button" d="M1.143,0,9.86,5.085,1.143,10.17Z" transform="translate(2.04 1.924)" fill="#ee4854"/>
      </g>
    </g>
  </g>
</svg>
