<svg xmlns="http://www.w3.org/2000/svg" xmlns:xlink="http://www.w3.org/1999/xlink" width="24" height="24" viewBox="0 0 24 24">
  <defs>
    <clipPath id="clip-path">
      <rect id="Bar" width="24" height="24" transform="translate(-5044 -3262)" fill="#515560"/>
    </clipPath>
  </defs>
  <g id="acadmy" transform="translate(5044 3262)" clip-path="url(#clip-path)">
    <path id="graduation-cap" d="M24,8.48V20a1,1,0,0,1-2,0V11.752l-7.4,3.536a5,5,0,0,1-2.577.694,5.272,5.272,0,0,1-2.7-.739L1.943,11.73a3.691,3.691,0,0,1-.084-6.455c.027-.016.056-.031.084-.045L9.4,1.672a5.226,5.226,0,0,1,5.282.045L22.057,5.23A3.767,3.767,0,0,1,24,8.48Zm-11.978,9.5a7.26,7.26,0,0,1-3.645-.972L4,14.919v2.7A5.007,5.007,0,0,0,7.519,22.4,15.557,15.557,0,0,0,12,23a15.557,15.557,0,0,0,4.481-.607A5.007,5.007,0,0,0,20,17.615V14.924l-4.459,2.13a6.983,6.983,0,0,1-3.519.928Z" transform="translate(-5044 -3261.99)" fill="#515560"/>
  </g>
</svg>
