<svg xmlns="http://www.w3.org/2000/svg" xmlns:xlink="http://www.w3.org/1999/xlink" width="24" height="24" viewBox="0 0 24 24">
  <defs>
    <clipPath id="clip-path">
      <rect id="Bar" width="24" height="24" transform="translate(-5125 -3261.5)" fill="#515560"/>
    </clipPath>
  </defs>
  <g id="clients" transform="translate(5125 3261.5)" clip-path="url(#clip-path)">
    <path id="book-open-reader" d="M12,9a4.5,4.5,0,1,1,4.5-4.5A4.505,4.505,0,0,1,12,9Zm10.2,2.162a5,5,0,0,0-4.157-1.069l-1.764.432A4,4,0,0,0,13,14.461v7.467a6.909,6.909,0,0,1-2,0V14.461a3.98,3.98,0,0,0-3.226-3.923l-1.88-.457A5,5,0,0,0,0,15v2.792A5,5,0,0,0,4.1,22.711l6.285,1.143A8.991,8.991,0,0,0,12,24a8.9,8.9,0,0,0,1.609-.146l6.285-1.143A5,5,0,0,0,24,17.792V15a4.983,4.983,0,0,0-1.8-3.838Z" transform="translate(-5124.998 -3261.5)" fill="#515560"/>
  </g>
</svg>
